<svg xmlns="http://www.w3.org/2000/svg" xmlns:xlink="http://www.w3.org/1999/xlink" preserveAspectRatio="none" width="1080" height="1080"><defs><path fill="#72FFBC" d="M989.55 540q0-186.15-131.7-317.85Q726.2 90.5 540 90.5q-186.15 0-317.85 131.65Q90.5 353.85 90.5 540q0 186.2 131.65 317.85 131.7 131.7 317.85 131.7 186.2 0 317.85-131.7Q989.55 726.2 989.55 540Z" id="a"/><path fill="#FFF" d="M1079.5 540.05q0-223.4-158-381.4-158-158-381.45-158-223.4 0-381.4 158-158 158-158 381.4 0 223.45 158 381.45t381.4 158q223.45 0 381.45-158t158-381.45Z" id="b"/><path fill="#70F7FB" d="M1065.9 740.6q-98.1 15.2-239.85 23.65-135.65 8.1-286.15 8.65-150.7.55-284.5-6.6-140.15-7.5-234.95-22.05V1140l1059.55 5.2-14.1-404.6Z" id="j"/><path fill="#FFF" d="M1041.2 744.2q-90.775 12.636-215.15 20.05-135.65 8.1-286.15 8.65-150.7.55-284.5-6.6-125.935-6.74-215.25-19.2 39.495 95.395 118.5 174.4 158 158 381.4 158 223.45 0 381.45-158 80.205-80.205 119.7-177.3Z" id="l"/><path id="e" stroke="#211239" stroke-width="5" stroke-linejoin="round" stroke-linecap="round" fill="none" d="M744.6 668.45V645h28.5v-36.75H810V570h75v45h45v58.325q3.387-1.976 7.2-2.95 3.653-.925 7.7-.925 8.493 0 15.275 4.1 1.103-11.035 9.225-19.2 9.45-9.4 22.75-9.4t22.7 9.4q9.45 9.45 9.45 22.75t-9.45 22.7l-.175.175q3.861 2.394 7.425 5.375 18.4 15.4 18.4 37.15t-18.4 37.1q-18.35 15.4-44.35 15.4-23.336 0-40.55-12.4v102.7M712.5 668.45h32.1V825H885V615M712.5 780H705v15h15.05v-15m-7.55 0V585H615v195h90m15.05-111.55V780M937.2 670.375V782.6q-1.965-1.422-3.85-3-2.612-2.185-4.85-4.5-.72-.743-1.4-1.5H885m45 0h-2.9M893.8 615v158.6M930 673.325V773.6m-835 5.35q-20.143-.646-34.65-11.95Q45 755 45 738t15.35-29q4.175-3.253 8.825-5.625Q60 693.498 60 679.8q0-14.45 10.2-24.65.916-.916 1.875-1.75-2.475-6.893-2.475-15 0-15.95 9.55-27.2 9.6-11.25 23.15-11.25 13.55 0 23.1 11.25 9.6 11.25 9.6 27.2 0 6.255-1.475 11.8 8.482-5.2 19.625-5.2 6.358 0 11.85 1.7v-38.85h105v33.3q2.517-.05 5.05-.05 12.675 0 24.95.95V590.3h69.05V656.075q22.153 7.555 42.725 18.925H555v60h6.8v-38H615m-520 7.6v-.6h.75q32.304-26.526 69.25-41.875V646.7m-70 57.9q.35-.3.75-.6 34.625 1.334 69.25 2.15 52.5 1.244 105 1.3 15 .007 30-.075 34.525-.18 69.05-.875 10.475-.21 20.95-.475 22.22-.542 44.45-1.3 6.335-4.41 14.1-5.35-17.704-13.833-36.775-24.375m-29.55 104H95V704.6m70-42.475q48.5-20.128 105-20.975M430.2 675q12.745 7.928 24.85 17.4 2.15-.3 4.4-.3 12.45 0 23.3 9.65 7.1 6.35 10 17.9 1.85 7.5 1.65 15.35H555M300 633.55q36.25 2.85 69.05 14.05m-2.35 7.675q1.18.4 2.35.8M382.225 779q-.675-3.143-.675-6.5 0-15.55 14.4-26.55 10.538-7.985 24.25-10.15-.2-1.834-.2-3.75 0-13.65 9.65-23.3 2.284-2.284 4.8-4.025m14.1-5.35q2.15-.275 4.4-.275.769 0 1.525.025 12.669.519 21.775 9.625 9.65 9.65 9.65 23.3 0 1.5-.125 2.95h8.625m-24.15 60H435v-60h50.775m76.025 0h8.2v60h-8.2v.1h98.1V780M300 642.05q34.965 2.732 66.7 13.225M470.25 795q-2.105 2.071-4.65 4-14.4 11-34.8 11t-34.85-11q-11.291-8.586-13.725-20M561.8 795h-91.55m249.8 99.8V795h24.55"/><path id="g" stroke="#211239" stroke-width="5" stroke-linejoin="round" stroke-linecap="round" fill="none" d="m926.975 396 .025.5v1.5q0 11.8-8.35 20.15-8.1 8.1-24.65 9.45H787q-8.9 0-15.2-6.3-6.3-6.3-6.3-15.2v-.05q0-8.9 6.3-15.2 6.3-6.3 15.2-6.3h44.15q-.45-2.829-.45-5.85 0-13.95 9.85-23.85 5.075-5.05 11.225-7.5-2.575-6.742-2.575-14.55 0-16.75 11.8-28.6 11.85-11.8 28.6-11.8t28.55 11.8q7.284 7.284 10.1 16.425 1.987-3.512 5.05-6.575 8.8-8.8 21.25-8.8t21.25 8.8q8.694 8.694 8.8 20.95h19.9q8.9 0 15.2 6.3 6.3 6.3 6.3 15.2v.05q0 8.9-6.3 15.2-6.3 6.3-15.2 6.3h-82.675m5.15 17.95q-.696-10.392-8.125-17.95h2.975M980.4 419.2q0 8.35-5.95 14.25-5.9 5.95-14.25 5.95t-14.3-5.95q-5.9-5.9-5.9-14.25t5.9-14.3q5.95-5.9 14.3-5.9 8.35 0 14.25 5.9 5.95 5.95 5.95 14.3Zm-398.6 67.45h25.15q.684-11.334 8.9-19.55 8.95-8.95 21.6-8.95 8.67 0 15.6 4.2 1.85-9.862 9.35-17.4 10-9.95 24.1-9.95 14.1 0 24.05 9.95 8.632 8.632 9.825 20.325 1.6-.275 3.325-.275 7.75 0 13.2 5.45 5.5 5.5 5.5 13.25 0 1.649-.25 3.2 8.627 1.127 15.05 7.55 7.8 7.8 7.8 18.85v.05q0 11.05-7.8 18.85-7.8 7.8-18.85 7.8h-162.4q-11.05 0-18.85-7.8-7.8-7.8-7.8-18.85v-.05q0-11.05 7.8-18.85 7.8-7.8 18.85-7.8h5.85l2.5 53.35M172.75 435h71.9q-.25-2.3-.25-4.7 0-16.7 11.8-28.5t28.5-11.8q16.7 0 28.5 11.8 1.142 1.142 2.175 2.325-.375-3.232-.375-6.625 0-21.75 15.35-37.15Q345.75 345 367.5 345t37.1 15.35q14.265 14.265 15.325 33.975Q426.898 391 435.25 391q14.8 0 25.25 10.45 10.5 10.5 10.5 25.3 0 4.52-.975 8.625 9.212 1.462 16.175 8.425 8.8 8.8 8.8 21.2 0 12.4-8.8 21.2-8.8 8.8-21.2 8.8H172.75q-12.4 0-21.2-8.8-8.8-8.8-8.8-21.2 0-12.4 8.8-21.2 8.8-8.8 21.2-8.8Zm5.6-46.65q0 10.6-7.5 18.05-7.45 7.5-18.05 7.5-10.6 0-18.1-7.5-7.45-7.45-7.45-18.05 0-10.6 7.45-18.1 7.5-7.45 18.1-7.45 10.6 0 18.05 7.45 7.5 7.5 7.5 18.1Z"/><path id="i" stroke="#211239" stroke-width="5" stroke-linejoin="round" stroke-linecap="round" fill="none" d="M555 172V62m-15 220v-90h30v90h20l15 20v20.4q0 9.4-6.65 15.95-3.05 3.1-9.8 5-5.484 1.547-10.475 1.65H600q6.2 0 10.6 4.4 4.4 4.4 4.4 10.6 0 6.2-4.4 10.6-4.4 4.4-10.6 4.4h-30l.325 10L585 840h-60l14.675-455 .325-10h-30q-6.2 0-10.6-4.4-4.4-4.4-4.4-10.6 0-6.2 4.4-10.6 4.4-4.4 10.6-4.4h21.925q-4.99-.103-10.475-1.65-6.75-1.9-9.85-5-6.6-6.6-6.6-15.95V302l20-20h45m-30.325 103h30.65M505 302h100m-73.075 43h46.15M570 375h-30"/><path id="k" stroke="#211239" stroke-width="5" stroke-linejoin="round" stroke-linecap="round" fill="none" d="m1080 1145.2-14.1-404.6q-98.1 15.2-239.85 23.65-135.65 8.1-286.15 8.65-150.7.55-284.5-6.6-140.15-7.5-234.95-22.05V1140l1059.55 5.2 15-.2"/><path id="n" stroke="#211239" stroke-width="5" stroke-linejoin="round" stroke-linecap="round" fill="none" d="M1392.95 613.6q11.15-8.1 23.05-7.9 11.6.05 22.55 7.9 12.6 9.05 23.2 9.35 11.4.3 22.4-9.35 10.1-8.85 22.8-8.4 11.7.4 22.8 8.4m-228 69.3q11.15 8.05 23 7.9 11.65-.05 22.6-7.9 12.6-9.05 23.2-9.35 11.4-.3 22.4 9.35 10.1 8.8 22.8 8.35 11.7-.35 22.8-8.35m-228-68.85q11.15-8.05 23-7.9 11.65.05 22.6 7.9 12.6 9.05 23.15 9.35 11.4.3 22.45-9.35 10.1-8.85 22.8-8.35 11.7.35 22.8 8.35m-136.8 136.8q11.15-8.05 23-7.9 11.65.05 22.6 7.9 12.6 9.05 23.15 9.35 11.4.3 22.45-9.35 10.1-8.8 22.8-8.35 11.7.35 22.8 8.35m45.6-.45q11.15-8.05 23.05-7.9 11.6.05 22.55 7.9 12.6 9.05 23.2 9.35 11.4.3 22.4-9.35 10.1-8.8 22.8-8.35 11.7.35 22.8 8.35m-45.6-67.95q11.2 8.05 23.05 7.9 11.6-.1 22.55-7.9 12.65-9.05 23.2-9.35 11.4-.3 22.4 9.35 10.15 8.8 22.8 8.35 11.75-.4 22.85-8.35m-136.85 136.8q11.2 8.05 23.05 7.9 11.6-.05 22.55-7.9 12.65-9.05 23.2-9.35 11.4-.3 22.4 9.35 10.15 8.85 22.8 8.35 11.75-.35 22.85-8.35m-228.05 67.95q11.15-8.05 23.05-7.9 11.6.1 22.55 7.9 12.6 9.05 23.2 9.35 11.4.3 22.4-9.35 10.1-8.8 22.8-8.35 11.7.4 22.8 8.35m-45.6 68.85q11.2 8.1 23.05 7.95 11.6-.1 22.55-7.95 12.65-9 23.2-9.3 11.4-.35 22.4 9.3 10.15 8.85 22.8 8.4 11.75-.4 22.85-8.4M1301.75 819.7q11.15 8.05 23 7.9 11.65-.05 22.6-7.9 12.6-9.05 23.2-9.35 11.4-.3 22.4 9.35 10.1 8.85 22.8 8.4 11.7-.4 22.8-8.4m-228 67.95q11.15-8.05 23-7.9 11.65.1 22.6 7.9 12.6 9.05 23.15 9.35 11.4.3 22.45-9.35 10.1-8.8 22.8-8.35 11.7.4 22.8 8.35m-45.6 68.9q11.15 8.05 23 7.9 11.65-.1 22.6-7.9 12.6-9.05 23.2-9.35 11.4-.3 22.4 9.35 10.1 8.8 22.8 8.35 11.7-.4 22.8-8.35m-51.3 67.5q11.15-8.1 23.05-7.95 11.6.1 22.55 7.95 12.6 9 23.2 9.35 11.4.3 22.4-9.35 10.1-8.85 22.8-8.4 11.7.4 22.8 8.4m-319.2.45q11.15-8.05 23-7.9 11.65.05 22.6 7.9 12.6 9.05 23.15 9.35 11.4.3 22.45-9.35 10.1-8.85 22.8-8.4 11.7.4 22.8 8.4m-45.6 68.85q11.15 8.05 23 7.9 11.65-.05 22.6-7.9 12.6-9.05 23.2-9.35 11.4-.3 22.4 9.35 10.1 8.8 22.8 8.35 11.7-.35 22.8-8.35m-228 67.95q11.15-8.05 23-7.9 11.65.05 22.6 7.9 12.6 9.05 23.15 9.35 11.4.3 22.45-9.35 10.1-8.8 22.8-8.35 11.7.35 22.8 8.35m45.6-.45q11.15-8.05 23.05-7.9 11.6.05 22.55 7.9 12.6 9.05 23.2 9.35 11.4.3 22.4-9.35 10.1-8.85 22.8-8.35 11.7.35 22.8 8.35m-45.6-67.95q11.2 8.05 23.05 7.9 11.6-.1 22.55-7.9 12.65-9.05 23.2-9.35 11.4-.3 22.4 9.35 10.15 8.8 22.8 8.35 11.75-.4 22.8-8.35m-136.8 136.8q11.2 8.05 23.05 7.9 11.6-.05 22.55-7.9 12.65-9.05 23.2-9.35 11.4-.3 22.4 9.35 10.15 8.8 22.8 8.35 11.75-.35 22.8-8.35m-228 67.95q11.15-8.05 23.05-7.9 11.6.1 22.55 7.9 12.6 9.05 23.2 9.35 11.4.3 22.4-9.35 10.1-8.8 22.8-8.35 11.7.4 22.8 8.35m-45.6 68.85q11.2 8.1 23.05 7.95 11.6-.1 22.55-7.95 12.65-9 23.2-9.35 11.4-.3 22.4 9.35 10.15 8.85 22.8 8.4 11.75-.4 22.8-8.4m-319.2-136.35q11.15 8.05 23 7.9 11.65-.05 22.6-7.9 12.6-9.05 23.2-9.35 11.4-.3 22.4 9.35 10.1 8.85 22.8 8.35 11.7-.35 22.8-8.35m-228 67.95q11.15-8.05 23-7.9 11.65.1 22.6 7.9 12.6 9.05 23.15 9.35 11.4.3 22.45-9.35 10.1-8.8 22.8-8.35 11.7.4 22.8 8.35m-45.6 68.9q11.15 8.05 23 7.9 11.65-.1 22.6-7.9 12.6-9.05 23.2-9.35 11.4-.35 22.4 9.35 10.1 8.8 22.8 8.35 11.7-.4 22.8-8.35m-769.6-752.95q11.2-8.05 23.05-7.9 11.65.05 22.55 7.9 12.65 9.05 23.2 9.35 11.4.3 22.45-9.35 10.1-8.85 22.8-8.35 11.7.35 22.8 8.35m-45.6 68.4q11.15 8.05 23 7.9 11.65-.1 22.6-7.9 12.6-9.05 23.15-9.35 11.4-.3 22.45 9.35 10.1 8.8 22.8 8.35 11.7-.4 22.8-8.35m-319.25 0q11.2 8.05 23.05 7.9 11.6-.1 22.55-7.9 12.65-9.05 23.2-9.35 11.4-.3 22.4 9.35 10.15 8.8 22.8 8.35 11.7-.4 22.8-8.35m-45.6 68.4q11.2-8.05 23.05-7.9 11.65.05 22.55 7.9 12.65 9.05 23.2 9.35 11.4.3 22.45-9.35 10.1-8.8 22.8-8.35 11.7.35 22.8 8.35m45.6-137.25q11.15-8.1 23-7.9 11.65.05 22.6 7.9.35.2.7.5 12.2 8.55 22.5 8.85 11.4.3 22.4-9.35 10.1-8.85 22.8-8.4 11.7.4 22.8 8.4m-45.6 68.85q11.15 8.05 23.05 7.9 11.6-.1 22.55-7.9 12.6-9.05 23.2-9.35 11.4-.3 22.4 9.35 10.1 8.8 22.8 8.35 11.7-.4 22.8-8.35m-228 67.95q11.15-8.05 23-7.9 11.65.05 22.6 7.9.35.2.7.55 12.2 8.5 22.5 8.8 11.4.3 22.4-9.35 10.1-8.8 22.8-8.35 11.7.35 22.8 8.35m45.6-136.35q11.2-8.05 23.05-7.9 11.6.05 22.55 7.9 12.65 9.05 23.2 9.35 11.4.3 22.4-9.35 10.15-8.85 22.8-8.35 11.75.35 22.8 8.35m-136.8 136.8q11.2-8.05 23.05-7.9 11.6.05 22.55 7.9 12.65 9.05 23.2 9.35 11.4.3 22.4-9.35 10.15-8.8 22.8-8.35 11.75.35 22.8 8.35m-45.6-68.4q11.2 8.05 23.05 7.9 11.65-.1 22.55-7.9 12.65-9.05 23.2-9.35 11.4-.3 22.45 9.35 10.1 8.8 22.8 8.35 11.7-.4 22.8-8.35M116 614.05q11.2-8.05 23.05-7.9 11.6.05 22.55 7.9 12.65 9.05 23.2 9.35 11.4.3 22.4-9.35 10.1-8.85 22.8-8.35 11.7.35 22.8 8.35m-228 68.4q11.15 8.05 23.05 7.9 11.6-.1 22.55-7.9 12.6-9.05 23.2-9.35 11.4-.3 22.4 9.35 10.1 8.8 22.8 8.35 11.7-.4 22.8-8.35m-228-68.85q11.15-8.1 23-7.9 11.65.05 22.6 7.9.35.2.65.5 12.25 8.55 22.5 8.85 11.4.3 22.45-9.35 10.1-8.85 22.8-8.4 11.7.4 22.8 8.4M-66.4 750.4q11.15-8.05 23-7.9 11.65.05 22.6 7.9.35.2.65.55 12.25 8.5 22.5 8.8 11.4.3 22.45-9.35 10.1-8.8 22.8-8.35 11.7.35 22.8 8.35m45.6.45q11.2-8.05 23.05-7.9 11.6.05 22.55 7.9 12.65 9.05 23.2 9.35 11.4.3 22.4-9.35 10.1-8.8 22.8-8.35 11.7.35 22.8 8.35m45.65-136.8q11.15-8.05 23-7.9 11.65.05 22.6 7.9 12.6 9.05 23.15 9.35 11.4.3 22.45-9.35 10.1-8.85 22.8-8.35 11.7.35 22.8 8.35m-228.05 68.4q11.2 8.05 23.05 7.9 11.65-.1 22.55-7.9 12.65-9.05 23.2-9.35 11.4-.3 22.45 9.35 10.1 8.8 22.8 8.35 11.7-.4 22.8-8.35m-45.6 68.4q11.15-8.05 23-7.9 11.65.05 22.6 7.9 12.6 9.05 23.15 9.35 11.4.3 22.45-9.35 10.1-8.8 22.8-8.35 11.7.35 22.8 8.35m-45.6-67.95q11.15 8.05 23 7.9 11.65-.05 22.6-7.9 12.6-9.05 23.15-9.35 11.4-.3 22.45 9.35 10.1 8.8 22.8 8.35 11.7-.35 22.8-8.35m-45.6-69.3q11.15-8.1 23.05-7.9 11.6.05 22.55 7.9 12.6 9.05 23.2 9.35 11.4.3 22.4-9.35 10.1-8.85 22.8-8.4 11.7.4 22.8 8.4m-136.8 136.8q11.15-8.05 23.05-7.9 11.6.05 22.55 7.9 12.6 9.05 23.2 9.35 11.4.3 22.4-9.35 10.1-8.8 22.8-8.35 11.7.35 22.8 8.35m-45.6 68.85q11.2 8.05 23.05 7.9 11.6-.05 22.55-7.9 12.65-9.05 23.2-9.35 11.4-.3 22.4 9.35 10.15 8.85 22.8 8.35 11.7-.35 22.8-8.35m-228 67.95q11.15-8.05 23.05-7.9 11.6.1 22.55 7.9 12.6 9.05 23.2 9.35 11.4.3 22.4-9.35 10.1-8.8 22.8-8.35 11.7.4 22.8 8.35m-228-67.5q11.15 8.05 23 7.9 11.65-.05 22.6-7.9 12.6-9.05 23.15-9.35 11.4-.3 22.45 9.35 10.1 8.85 22.8 8.4 11.7-.4 22.8-8.4m-136.8 136.85q11.15 8.05 23 7.9 11.65-.1 22.6-7.9 12.6-9.05 23.15-9.35 11.4-.3 22.45 9.35 10.1 8.8 22.8 8.35 11.7-.4 22.8-8.35m45.6-.5q11.2 8.1 23.05 7.95 11.6-.1 22.55-7.95 12.65-9 23.2-9.3 11.4-.35 22.4 9.3 10.15 8.85 22.8 8.4 11.7-.4 22.8-8.4m-410.4-68.4q11.15-8.05 23-7.9 11.65.1 22.6 7.9 12.6 9.05 23.15 9.35 11.4.3 22.45-9.35 10.1-8.8 22.8-8.35 11.7.4 22.8 8.35M292.7 1024.5q11.2-8.05 23.05-7.9 11.65.05 22.6 7.9 12.6 9.05 23.15 9.35 11.4.3 22.45-9.35 10.1-8.85 22.8-8.4 11.7.4 22.8 8.4M292.7 1161.3q11.2-8.05 23.05-7.9 11.65.05 22.6 7.9 12.6 9.05 23.15 9.35 11.4.3 22.45-9.35 10.1-8.8 22.8-8.35 11.7.35 22.8 8.35m-45.6-67.95q11.15 8.05 23 7.9 11.65-.05 22.6-7.9 12.6-9.05 23.15-9.35 11.4-.3 22.45 9.35 10.1 8.8 22.8 8.35 11.7-.35 22.8-8.35m-45.6-69.3q11.15-8.1 23.05-7.95 11.6.1 22.55 7.95 12.6 9 23.2 9.35 11.4.3 22.4-9.35 10.1-8.85 22.8-8.4 11.7.4 22.8 8.4m-136.8 136.8q11.15-8.05 23.05-7.9 11.6.05 22.55 7.9 12.6 9.05 23.2 9.35 11.4.3 22.4-9.35 10.1-8.85 22.8-8.35 11.7.35 22.8 8.35m-45.6-67.95q11.2 8.05 23.05 7.9 11.6-.1 22.55-7.9 12.65-9.05 23.2-9.35 11.4-.3 22.4 9.35 10.15 8.8 22.8 8.35 11.7-.4 22.8-8.35M207.2 819.25q11.2 8.05 23.05 7.9 11.65-.05 22.55-7.9 12.65-9.05 23.2-9.35 11.4-.3 22.45 9.35 10.1 8.85 22.8 8.35 11.7-.35 22.8-8.35M116 887.65q11.2-8.05 23.05-7.9 11.6.1 22.55 7.9 12.65 9.05 23.2 9.35 11.4.3 22.4-9.35 10.1-8.8 22.8-8.35 11.7.4 22.8 8.35m-45.6 68.4q11.2 8.1 23.05 7.95 11.65-.1 22.55-7.95 12.65-9 23.2-9.3 11.4-.35 22.45 9.3 10.1 8.85 22.8 8.4 11.7-.4 22.8-8.4M24.8 819.25q11.15 8.05 23.05 7.9 11.6-.05 22.55-7.9 12.6-9.05 23.2-9.35 11.4-.3 22.4 9.35 10.1 8.85 22.8 8.35 11.7-.35 22.8-8.35m-228 67.95q11.15-8.05 23-7.9 11.65.1 22.6 7.9.35.25.65.55 12.25 8.5 22.5 8.8 11.4.3 22.45-9.35 10.1-8.8 22.8-8.35 11.7.4 22.8 8.35m-45.6 68.85q11.15 8.1 23.05 7.95 11.6-.1 22.55-7.95 12.6-9 23.2-9.3 11.4-.35 22.4 9.3 10.1 8.85 22.8 8.4 11.7-.4 22.8-8.4m-51.3 68.45q11.2-8.05 23.05-7.9 11.6.05 22.55 7.9 12.65 9.05 23.2 9.35 11.4.3 22.4-9.35 10.1-8.85 22.8-8.4 11.7.4 22.8 8.4m-319.2-.45q11.15-8.1 23-7.95 11.65.1 22.6 7.95.35.2.65.5 12.25 8.5 22.5 8.85 11.4.3 22.45-9.35 10.1-8.85 22.8-8.4 11.7.4 22.8 8.4m-45.6 68.85q11.15 8.05 23 7.9 11.65-.1 22.6-7.9 12.6-9.05 23.2-9.35 11.4-.3 22.4 9.35 10.1 8.8 22.8 8.35 11.7-.4 22.8-8.35m-228 67.95q11.15-8.05 23-7.9 11.65.05 22.6 7.9.35.2.65.5 12.25 8.55 22.5 8.85 11.4.3 22.45-9.35 10.1-8.85 22.8-8.35 11.7.35 22.8 8.35m45.6.45q11.2-8.05 23.05-7.9 11.6.05 22.55 7.9 12.65 9.05 23.2 9.35 11.4.3 22.4-9.35 10.1-8.8 22.8-8.35 11.7.35 22.8 8.35m-45.6-68.4q11.2 8.05 23.05 7.9 11.6-.1 22.55-7.9 12.65-9.05 23.2-9.35 11.4-.3 22.4 9.35 10.15 8.8 22.85 8.35 11.7-.4 22.8-8.35M201.5 1229.7q11.2 8.05 23.05 7.9 11.6-.05 22.55-7.9 12.65-9.05 23.2-9.35 11.4-.3 22.4 9.35 10.15 8.8 22.85 8.35 11.7-.35 22.8-8.35m-228.05 68.4q11.2-8.05 23.05-7.9 11.6.1 22.55 7.9 12.65 9.05 23.2 9.35 11.4.3 22.4-9.35 10.1-8.8 22.8-8.35 11.7.4 22.8 8.35m-45.6 68.4q11.2 8.1 23.05 7.95 11.6-.1 22.55-7.95 12.65-9 23.2-9.35 11.4-.3 22.4 9.35 10.15 8.85 22.85 8.4 11.7-.4 22.8-8.4m-45.65-68.4q11.2-8.05 23.05-7.9 11.65.1 22.6 7.9 12.6 9.05 23.15 9.35 11.4.3 22.45-9.35 10.1-8.8 22.8-8.35 11.7.4 22.8 8.35M19.1 1229.7q11.15 8.05 23 7.9 11.65-.05 22.6-7.9 12.6-9.05 23.2-9.35 11.4-.3 22.4 9.35 10.1 8.8 22.8 8.35 11.7-.35 22.8-8.35m-228 67.95q11.15-8.05 23-7.9 11.65.1 22.6 7.9.35.25.65.55 12.25 8.5 22.5 8.8 11.4.3 22.45-9.35 10.1-8.8 22.8-8.35 11.7.4 22.8 8.35m-45.6 68.85q11.15 8.1 23 7.95 11.65-.1 22.6-7.95 12.6-9 23.2-9.35 11.4-.3 22.4 9.35 10.1 8.85 22.8 8.4 11.7-.4 22.8-8.4m410.45-136.8q11.2 8.05 23.05 7.9 11.6-.05 22.55-7.9 12.65-9.05 23.2-9.35 11.4-.3 22.4 9.35 10.15 8.8 22.8 8.35 11.7-.35 22.8-8.35m-319.2.45q11.15 8.05 23 7.9 11.65-.05 22.6-7.9 12.6-9.05 23.15-9.35 11.4-.3 22.45 9.35 10.1 8.85 22.8 8.35 11.7-.35 22.8-8.35m-45.6 67.5q11.15-8.05 23.05-7.9 11.6.1 22.55 7.9 12.6 9.05 23.2 9.35 11.4.3 22.4-9.35 10.1-8.8 22.8-8.35 11.7.4 22.8 8.35m-228 69.35q11.15 8.05 23 7.9 11.65-.1 22.6-7.9 12.6-9.05 23.15-9.35 11.4-.35 22.45 9.35 10.1 8.8 22.8 8.35 11.7-.4 22.8-8.35m45.6-.5q11.2 8.1 23.05 7.95 11.6-.1 22.55-7.95 12.65-9 23.2-9.35 11.4-.3 22.4 9.35 10.15 8.85 22.8 8.4 11.7-.4 22.8-8.4m416.15-547.25q11.2 8.05 23.05 7.9 11.65-.05 22.55-7.9 12.65-9.05 23.2-9.35 11.4-.3 22.45 9.35 10.1 8.85 22.8 8.35 11.7-.35 22.8-8.35m-228.05 68.4q11.2-8.05 23.05-7.9 11.6.1 22.55 7.9 12.65 9.05 23.2 9.35 11.4.3 22.4-9.35 10.15-8.8 22.8-8.35 11.75.4 22.8 8.35m-45.6 68.4q11.2 8.1 23.05 7.95 11.65-.1 22.55-7.95 12.65-9 23.2-9.3 11.4-.35 22.45 9.3 10.1 8.85 22.8 8.4 11.7-.4 22.8-8.4M936.9 819.25q11.15 8.05 23.05 7.9 11.6-.05 22.55-7.9 12.6-9.05 23.2-9.35 11.4-.3 22.4 9.35 10.1 8.85 22.8 8.35 11.7-.35 22.8-8.35m-136.8 136.8q11.15 8.1 23.05 7.95 11.6-.1 22.55-7.95 12.6-9 23.2-9.3 11.4-.35 22.4 9.3 10.1 8.85 22.8 8.4 11.7-.4 22.8-8.4m-51.3 68.45q11.2-8.05 23.05-7.9 11.6.05 22.55 7.9 12.65 9.05 23.2 9.35 11.4.3 22.4-9.35 10.15-8.85 22.8-8.4 11.75.4 22.8 8.4m-228 68.4q11.15 8.05 23.05 7.9 11.6-.1 22.55-7.9 12.6-9.05 23.2-9.35 11.4-.3 22.4 9.35 10.1 8.8 22.8 8.35 11.7-.4 22.8-8.35m-45.6 68.4q11.2-8.05 23.05-7.9 11.6.05 22.55 7.9 12.65 9.05 23.2 9.35 11.4.3 22.4-9.35 10.15-8.8 22.8-8.35 11.75.35 22.8 8.35m-45.6-68.4q11.2 8.05 23.05 7.9 11.65-.1 22.55-7.9 12.65-9.05 23.2-9.35 11.4-.3 22.45 9.35 10.1 8.8 22.8 8.35 11.7-.4 22.8-8.35M845.7 887.2q11.15-8.05 23-7.9 11.65.1 22.6 7.9.35.25.7.55 12.2 8.5 22.5 8.8 11.4.3 22.4-9.35 10.1-8.8 22.8-8.35 11.7.4 22.8 8.35m-228-67.95q11.15 8.05 23 7.9 11.65-.05 22.6-7.9 12.6-9.05 23.15-9.35 11.4-.3 22.45 9.35 10.1 8.85 22.8 8.35 11.7-.35 22.8-8.35m-136.8 136.8q11.15 8.1 23 7.95 11.65-.1 22.6-7.95 12.6-9 23.15-9.3 11.4-.35 22.45 9.3 10.1 8.85 22.8 8.4 11.7-.4 22.8-8.4m-228.05-68.4q11.2-8.05 23.05-7.9 11.65.1 22.55 7.9 12.65 9.05 23.2 9.35 11.4.3 22.45-9.35 10.1-8.8 22.8-8.35 11.7.4 22.8 8.35M657.55 1024.5q11.2-8.05 23.05-7.9 11.65.05 22.55 7.9 12.65 9.05 23.2 9.35 11.4.3 22.45-9.35 10.1-8.85 22.8-8.4 11.7.4 22.8 8.4m-136.85 136.8q11.2-8.05 23.05-7.9 11.65.05 22.55 7.9 12.65 9.05 23.2 9.35 11.4.3 22.45-9.35 10.1-8.8 22.8-8.35 11.7.35 22.8 8.35m-45.6-68.4q11.15 8.05 23 7.9 11.65-.1 22.6-7.9 12.6-9.05 23.15-9.35 11.4-.3 22.45 9.35 10.1 8.8 22.8 8.35 11.7-.4 22.8-8.35m-45.6-68.85q11.15-8.1 23-7.95 11.65.1 22.6 7.95.35.2.7.5 12.2 8.5 22.45 8.85 11.45.3 22.45-9.35 10.1-8.85 22.8-8.4 11.7.4 22.8 8.4M840 1160.85q11.15-8.05 23-7.9 11.65.05 22.6 7.9.35.2.7.5 12.2 8.55 22.45 8.85 11.45.3 22.45-9.35 10.1-8.85 22.8-8.35 11.7.35 22.8 8.35m-45.6 68.85q11.15 8.05 23.05 7.9 11.6-.05 22.55-7.9 12.6-9.05 23.2-9.35 11.4-.3 22.4 9.35 10.1 8.8 22.8 8.35 11.7-.35 22.8-8.35m-319.2 0q11.15 8.05 23 7.9 11.65-.05 22.6-7.9 12.6-9.05 23.15-9.35 11.4-.3 22.45 9.35 10.1 8.8 22.8 8.35 11.7-.35 22.8-8.35m-45.6 67.95q11.15-8.05 23-7.9 11.65.1 22.6 7.9.35.25.7.55 12.2 8.5 22.45 8.8 11.45.3 22.45-9.35 10.1-8.8 22.8-8.35 11.7.4 22.8 8.35m-228 68.85q11.15 8.1 23 7.95 11.65-.1 22.6-7.95 12.6-9 23.15-9.35 11.4-.3 22.45 9.35 10.1 8.85 22.8 8.4 11.7-.4 22.8-8.4m45.6 0q11.15 8.1 23.05 7.95 11.6-.1 22.55-7.95 12.6-9 23.2-9.35 11.4-.3 22.4 9.35 10.1 8.85 22.8 8.4 11.7-.4 22.8-8.4m-410.45-68.4q11.2-8.05 23.05-7.9 11.65.1 22.55 7.9 12.65 9.05 23.2 9.35 11.4.3 22.45-9.35 10.1-8.8 22.8-8.35 11.7.4 22.8 8.35m319.2-68.4q11.2 8.05 23.05 7.9 11.65-.05 22.55-7.9 12.65-9.05 23.2-9.35 11.4-.3 22.45 9.35 10.1 8.8 22.8 8.35 11.7-.35 22.8-8.35m-228.05 68.4q11.2-8.05 23.05-7.9 11.6.1 22.55 7.9 12.65 9.05 23.2 9.35 11.4.3 22.4-9.35 10.15-8.8 22.8-8.35 11.75.4 22.8 8.35m-45.6 68.4q11.2 8.1 23.05 7.95 11.65-.1 22.55-7.95 12.65-9 23.2-9.35 11.4-.3 22.45 9.35 10.1 8.85 22.8 8.4 11.7-.4 22.8-8.4m-1499.3-752.45q11.2-8.05 23.05-7.9 11.6.05 22.55 7.9 12.65 9.05 23.2 9.35 11.4.3 22.4-9.35 10.15-8.85 22.85-8.35 11.7.35 22.8 8.35m-233.75 68.4q11.2 8.05 23.05 7.9 11.6-.1 22.55-7.9 12.65-9.05 23.2-9.35 11.4-.3 22.4 9.35 10.1 8.8 22.8 8.35 11.7-.4 22.8-8.35m-39.9 68.4q11.2-8.05 23.05-7.9 11.6.05 22.55 7.9 12.65 9.05 23.2 9.35 11.4.3 22.4-9.35 10.15-8.8 22.85-8.35 11.7.35 22.8 8.35m-45.65-68.4q11.2 8.05 23.05 7.9 11.65-.1 22.6-7.9 12.6-9.05 23.15-9.35 11.4-.3 22.45 9.35 10.1 8.8 22.8 8.35 11.7-.4 22.8-8.35m-136.85 136.8q11.2 8.05 23.05 7.9 11.65-.05 22.6-7.9 12.6-9.05 23.15-9.35 11.4-.3 22.45 9.35 10.1 8.85 22.8 8.35 11.7-.35 22.8-8.35m-228.05 68.4q11.2-8.05 23.05-7.9 11.6.1 22.55 7.9 12.65 9.05 23.2 9.35 11.4.3 22.4-9.35 10.15-8.8 22.85-8.35 11.7.4 22.8 8.35m-45.65 68.4q11.2 8.1 23.05 7.95 11.65-.1 22.6-7.95 12.6-9 23.15-9.3 11.4-.35 22.45 9.3 10.1 8.85 22.8 8.4 11.7-.4 22.8-8.4m-324.95-136.8q11.2 8.05 23.05 7.9 11.6-.05 22.55-7.9 12.65-9.05 23.2-9.35 11.4-.3 22.4 9.35 10.1 8.85 22.8 8.35 11.7-.35 22.8-8.35m-136.8 136.8q11.2 8.1 23.05 7.95 11.6-.1 22.55-7.95 12.65-9 23.2-9.3 11.4-.35 22.4 9.3 10.1 8.85 22.8 8.4 11.7-.4 22.8-8.4m-45.6 68.45q11.2-8.05 23.05-7.9 11.6.05 22.55 7.9 12.65 9.05 23.2 9.35 11.4.3 22.4-9.35 10.15-8.85 22.85-8.4 11.7.4 22.8 8.4m-233.75 68.4q11.2 8.05 23.05 7.9 11.6-.1 22.55-7.9 12.6-9.05 23.2-9.35 11.4-.3 22.4 9.35 10.1 8.8 22.8 8.35 11.7-.4 22.8-8.35m-39.9 68.4q11.2-8.05 23.05-7.9 11.6.05 22.55 7.9 12.65 9.05 23.2 9.35 11.4.3 22.4-9.35 10.15-8.8 22.85-8.35 11.7.35 22.8 8.35m-45.65-68.4q11.2 8.05 23.05 7.9 11.65-.1 22.6-7.9 12.6-9.05 23.15-9.35 11.4-.3 22.45 9.35 10.1 8.8 22.8 8.35 11.7-.4 22.8-8.35m-324.95 136.8q11.2 8.05 23.05 7.9 11.6-.05 22.55-7.9 12.6-9.05 23.2-9.35 11.4-.3 22.4 9.35 10.1 8.8 22.8 8.35 11.7-.35 22.8-8.35m-136.8 136.8q11.2 8.1 23.05 7.95 11.6-.1 22.55-7.95 12.6-9 23.2-9.35 11.4-.3 22.4 9.35 10.1 8.85 22.8 8.4 11.7-.4 22.8-8.4m51.3-136.8q11.2 8.05 23.05 7.9 11.65-.05 22.6-7.9 12.6-9.05 23.15-9.35 11.4-.3 22.45 9.35 10.1 8.8 22.8 8.35 11.7-.35 22.8-8.35m-136.85 136.8q11.2 8.1 23.05 7.95 11.65-.1 22.6-7.95 12.6-9 23.15-9.35 11.4-.3 22.45 9.35 10.1 8.85 22.8 8.4 11.7-.4 22.8-8.4m-228.05-68.4q11.2-8.05 23.05-7.9 11.6.1 22.55 7.9 12.65 9.05 23.2 9.35 11.4.3 22.4-9.35 10.15-8.8 22.85-8.35 11.7.4 22.8 8.35"/><g id="d"><path fill="#211239" d="M561.8 697v38h8.2v60h-8.2v.1h98.1V780H615v-83h-53.2m-131.6-22h-18.45q19.096 10.542 36.8 24.35 2.15-.25 4.4-.25h1.5q12.694.544 21.8 9.65 9.65 9.65 9.65 23.3 0 1.5-.15 2.95h8.65q.2-7.85-1.65-15.35-2.9-11.55-10-17.9-10.85-9.65-23.3-9.65-2.25 0-4.4.3-12.105-9.472-24.85-17.4M270 641.15v-33.3H165v54.25q48.5-20.103 105-20.95m30-7.6v8.5q34.965 2.732 66.7 13.2l2.35-7.65q-32.8-11.2-69.05-14.05M885 773.6h8.8V615H885v158.6m52.2-100.3H930v100.3l-1.5 1.5q2.238 2.315 4.85 4.5h3.85V673.3m-217.15-4.85h-7.55V780h7.55V668.45Z"/><path fill="#00458B" d="M485.75 735H435v60h135v-60h-84.25Z"/><path fill="#72FFBC" d="M395.95 745.95q-14.4 11-14.4 26.55 0 3.357.65 6.5 2.459 11.414 13.75 20 14.45 11 34.85 11 20.4 0 34.8-11 2.545-1.929 4.65-4H435v-60h50.75q.15-1.45.15-2.95 0-13.65-9.65-23.3-9.106-9.106-21.8-9.65h-1.5q-2.25 0-4.4.25-7.765.965-14.1 5.35-2.516 1.766-4.8 4.05-9.65 9.65-9.65 23.3 0 1.916.2 3.75-13.712 2.165-24.25 10.15M95.75 704H95v.6q.35-.3.75-.6M135 638.4q0-15.95-9.6-27.2-9.55-11.25-23.1-11.25T79.15 611.2q-9.55 11.25-9.55 27.2 0 8.107 2.45 15-.934.834-1.85 1.75Q60 665.35 60 679.8q0 13.698 9.15 23.55-4.625 2.397-8.8 5.65Q45 721 45 738t15.35 29Q74.857 778.304 95 778.95V704h.75q32.304-26.526 69.25-41.9v-15.4q-5.492-1.7-11.85-1.7-11.143 0-19.65 5.2 1.5-5.545 1.5-11.8m802.2 141.2h-3.85q1.885 1.578 3.85 3v-3m-8.7-4.5 1.5-1.5h-2.9q.68.757 1.4 1.5m8.7-101.8v-2.95q-3.813.999-7.2 2.95h7.2m0-2.95V782.6q17.214 12.4 40.55 12.4 26 0 44.35-15.4 18.4-15.35 18.4-37.1t-18.4-37.15q-3.564-2.981-7.45-5.4.117-.067.2-.15 9.45-9.4 9.45-22.7 0-13.3-9.45-22.75-9.4-9.4-22.7-9.4-13.3 0-22.75 9.4-8.122 8.165-9.25 19.2-6.757-4.1-15.25-4.1-4.047 0-7.7.9Z"/><path fill="#70F7FB" d="m369.05 647.6-2.35 7.65q1.18.426 2.35.8v-8.45M300 590.3v43.25q36.25 2.85 69.05 14.05v-57.3H300Z"/><path fill="#005E5E" d="M455.05 692.4q2.15-.3 4.4-.3 12.45 0 23.3 9.65 7.1 6.35 10 17.9 1.85 7.5 1.65 15.35H555v-60H430.2q12.745 7.928 24.85 17.4m265-23.95V795h24.55V668.45h-24.55M712.5 780H705v15h15.05v-15h-7.55Z"/><path fill="#FFF" d="M275.05 641.1q-2.533 0-5.05.05-56.5.847-105 20.95-36.946 15.374-69.25 41.9 34.625 1.334 69.25 2.15 52.5 1.244 105 1.3 15 .007 30-.1 34.525-.154 69.05-.85 10.475-.21 20.95-.5 22.22-.517 44.45-1.3 6.335-4.385 14.1-5.35-17.704-13.808-36.8-24.35-20.547-11.37-42.7-18.95-1.17-.374-2.35-.8-31.735-10.468-66.7-13.2-12.275-.95-24.95-.95Z"/><path fill="#999" d="M95.75 704q-.4.3-.75.6V779h287.2q-.65-3.143-.65-6.5 0-15.55 14.4-26.55 10.538-7.985 24.25-10.15-.2-1.834-.2-3.75 0-13.65 9.65-23.3 2.284-2.284 4.8-4.05-22.23.783-44.45 1.3-10.475.29-20.95.5-34.525.696-69.05.85-15 .107-30 .1-52.5-.056-105-1.3-34.625-.816-69.25-2.15Z"/><path fill="#1D458B" d="M930 615h-36.2v158.6H930V615M705 780h7.5V585H615v195h90m180-210h-75v38.25h-36.9V645h-28.5v180H885V570Z"/></g><g id="f"><path fill="#FFF" d="M152.8 362.8q-10.6 0-18.1 7.45-7.45 7.5-7.45 18.1 0 10.6 7.45 18.05 7.5 7.5 18.1 7.5 10.6 0 18.05-7.5 7.5-7.45 7.5-18.05 0-10.6-7.5-18.1-7.45-7.45-18.05-7.45m251.8-2.45Q389.25 345 367.5 345t-37.15 15.35Q315 375.75 315 397.5q0 3.393.35 6.6-1.008-1.158-2.15-2.3-11.8-11.8-28.5-11.8t-28.5 11.8q-11.8 11.8-11.8 28.5 0 2.4.25 4.7h-71.9q-12.4 0-21.2 8.8-8.8 8.8-8.8 21.2 0 12.4 8.8 21.2 8.8 8.8 21.2 8.8H465q12.4 0 21.2-8.8 8.8-8.8 8.8-21.2 0-12.4-8.8-21.2-6.963-6.963-16.2-8.45 1-4.08 1-8.6 0-14.8-10.5-25.3Q450.05 391 435.25 391q-8.352 0-15.35 3.3-1.035-19.685-15.3-33.95m352.6 134.1q-6.423-6.423-15.05-7.55.25-1.551.25-3.2 0-7.75-5.5-13.25-5.45-5.45-13.2-5.45-1.724 0-3.35.25-1.168-11.668-9.8-20.3Q700.6 435 686.5 435q-14.1 0-24.1 9.95-7.5 7.538-9.35 17.4-6.93-4.2-15.6-4.2-12.65 0-21.6 8.95-8.216 8.216-8.9 19.55H581.8l2.5 53.35h154.05q11.05 0 18.85-7.8 7.8-7.8 7.8-18.85v-.05q0-11.05-7.8-18.85m203-95.45q-8.35 0-14.3 5.9-5.9 5.95-5.9 14.3 0 8.35 5.9 14.25 5.95 5.95 14.3 5.95 8.35 0 14.25-5.95 5.95-5.9 5.95-14.25t-5.95-14.3q-5.9-5.9-14.25-5.9m-33.2-4.5q0-9.295-5.2-16.45h-2.95q7.429 7.558 8.1 17.95.05-.743.05-1.5m77.5-59.5h-19.9q-.106-12.256-8.8-20.95-8.8-8.8-21.25-8.8t-21.25 8.8q-3.063 3.063-5.05 6.55-2.816-9.116-10.1-16.4-11.8-11.8-28.55-11.8T861 304.2q-11.8 11.85-11.8 28.6 0 7.808 2.55 14.55-6.125 2.45-11.2 7.5-9.85 9.9-9.85 23.85 0 3.021.45 5.85H787q-8.9 0-15.2 6.3-6.3 6.3-6.3 15.2v.05q0 8.9 6.3 15.2 6.3 6.3 15.2 6.3h107q16.55-1.35 24.65-9.45Q927 409.8 927 398v-1.5q-.013-.25-.05-.5-.671-10.392-8.1-17.95h85.65q8.9 0 15.2-6.3 6.3-6.3 6.3-15.2v-.05q0-8.9-6.3-15.2-6.3-6.3-15.2-6.3Z"/><path fill="#211239" d="M581.8 486.65h-5.85q-11.05 0-18.85 7.8-7.8 7.8-7.8 18.85v.05q0 11.05 7.8 18.85 7.8 7.8 18.85 7.8h8.35l-2.5-53.35Z"/></g><g id="h"><path fill="#999" d="M570.3 385h-30.65L525 840h60l-14.7-455Z"/><path fill="#211239" d="m540 375-.35 10h30.65l-.3-10h-30Z"/><path fill="#FFF" d="M499.4 349.4q-4.4 4.4-4.4 10.6 0 6.2 4.4 10.6 4.4 4.4 10.6 4.4h90q6.2 0 10.6-4.4 4.4-4.4 4.4-10.6 0-6.2-4.4-10.6-4.4-4.4-10.6-4.4h-90q-6.2 0-10.6 4.4m38.4-27q0-4.8-3.4-8.2-3.35-3.35-8.15-3.35-4.8 0-8.2 3.35-3.35 3.4-3.35 8.2 0 4.8 3.35 8.15 3.4 3.4 8.2 3.4 4.8 0 8.15-3.4 3.4-3.35 3.4-8.15M590 282h-65l-20 20h100l-15-20Z"/><path fill="#CCC" d="M505 302v20.4q0 9.35 6.6 15.95 3.1 3.1 9.85 5 5.484 1.547 10.45 1.65h46.15q5.016-.103 10.5-1.65 6.75-1.9 9.8-5Q605 331.8 605 322.4V302H505m29.4 12.2q3.4 3.4 3.4 8.2 0 4.8-3.4 8.15-3.35 3.4-8.15 3.4-4.8 0-8.2-3.4-3.35-3.35-3.35-8.15 0-4.8 3.35-8.2 3.4-3.35 8.2-3.35 4.8 0 8.15 3.35M570 192h-30v90h30v-90Z"/></g></defs><use xlink:href="#a"/><mask id="c"><use xlink:href="#b"/></mask><g mask="url(#c)"><g><use xlink:href="#d"/><use xlink:href="#e"/></g></g><g mask="url(#c)"><g><use xlink:href="#f"/><use xlink:href="#g"/></g></g><g mask="url(#c)"><g><use xlink:href="#h"/><use xlink:href="#i"/></g></g><g mask="url(#c)"><g><use xlink:href="#j"/><use xlink:href="#k"/></g></g><mask id="m"><use xlink:href="#l"/></mask><g mask="url(#m)"><use xlink:href="#n" transform="translate(-4.6 -29.9)"/></g></svg>