<svg xmlns="http://www.w3.org/2000/svg" xmlns:xlink="http://www.w3.org/1999/xlink" preserveAspectRatio="none" width="1080" height="1080"><defs><path fill="#FFF" d="M220.85 858.55q131.8 132.1 318.7 132.1 186.9 0 319-132.1 62.597-62.597 95.5-137.5H125.1q33.034 74.903 95.75 137.5m733.2-137.5q36.6-83.165 36.6-181.5 0-186.9-132.1-318.7-132.1-132.35-319-132.35t-318.7 132.35Q88.5 352.65 88.5 539.55q0 98.335 36.6 181.5h828.95Z" id="a"/><path fill="#FFF" d="M360.2 268.25q-8.25-8.25-19.9-8.25h-62.15q-11.65 0-19.9 8.25-8.25 8.25-8.25 19.9 0 .936.05 1.85H66.2q-14.5 0-24.75 10.25T31.2 325q0 14.5 10.25 24.75T66.2 360H285q14.5 0 24.75-10.25T320 325q0-4.56-1.05-8.7h-17.7 39.05q11.65 0 19.9-8.25 8.25-8.25 8.25-19.9 0-11.65-8.25-19.9m638.05 70Q1010 326.55 1010 310t-11.75-28.3Q986.55 270 970 270q0-8.3-5.85-14.15T950 250H820q-8.3 0-14.15 5.85T800 270h-20q-16.55 0-28.3 11.7Q740 293.45 740 310t11.7 28.25Q763.45 350 780 350h190q16.55 0 28.25-11.75Z" id="d"/><path fill="#FFF" d="M700 370q0-12.4-8.8-21.2-8.8-8.8-21.2-8.8H510q-12.4 0-21.2 8.8-8.8 8.8-8.8 21.2 0 12.4 8.8 21.2 8.8 8.8 21.2 8.8h160q12.4 0 21.2-8.8 8.8-8.8 8.8-21.2Z" id="f"/><path fill="#FFF" d="M160.7 160.7Q74.3 247.05 35.55 353.45q15 128.1 77.3 230.25 19.25 31.55 43.85 61.2l16 18.2q151.35 162.05 410.7 181 211.25 15.25 439.35-69.75 52.4-106.45 52.4-234.8 0-221.9-156.95-378.85Q761.5 4 539.55 4 317.65 4 160.7 160.7m158-411-55.6 94.7h415.75L318.7-250.3Z" id="h"/><path fill="#211239" d="M710 540h-34.05v162H710V540Z" id="j"/><path fill="#FFF" d="M1075.15 539.55q0-221.9-156.95-378.85Q761.5 4 539.55 4 317.65 4 160.7 160.7 4 317.65 4 539.55 4 761.5 160.7 918.2q156.95 156.95 378.85 156.95 221.95 0 378.65-156.95 156.95-156.7 156.95-378.65Z" id="x"/><path id="e" stroke="#211239" stroke-width="5" stroke-linejoin="round" stroke-linecap="round" fill="none" d="M780 270h20q0-8.3 5.85-14.15T820 250h130q8.3 0 14.15 5.85T970 270q16.55 0 28.25 11.7Q1010 293.45 1010 310t-11.75 28.25Q986.55 350 970 350H780q-16.55 0-28.3-11.75Q740 326.55 740 310t11.7-28.3Q763.45 270 780 270Zm-461.025 46.3Q320 320.44 320 325q0 14.5-10.25 24.75T285 360H66.2q-14.5 0-24.75-10.25T31.2 325q0-14.5 10.25-24.75T66.2 290h183.85q-.05-.914-.05-1.85 0-11.65 8.25-19.9 8.25-8.25 19.9-8.25h62.15q11.65 0 19.9 8.25 8.25 8.25 8.25 19.9 0 11.65-8.25 19.9-8.25 8.25-19.9 8.25h-39.05"/><path id="g" stroke="#211239" stroke-width="5" stroke-linejoin="round" stroke-linecap="round" fill="none" d="M510 340h160q12.4 0 21.2 8.8 8.8 8.8 8.8 21.2 0 12.4-8.8 21.2-8.8 8.8-21.2 8.8H510q-12.4 0-21.2-8.8-8.8-8.8-8.8-21.2 0-12.4 8.8-21.2 8.8-8.8 21.2-8.8Z"/><path id="k" stroke="#211239" stroke-width="5" stroke-linejoin="round" stroke-linecap="round" fill="none" d="M675.95 540H710v162h-34.05V540Z"/><path id="m" stroke="#211239" stroke-width="5" stroke-linejoin="round" stroke-linecap="round" fill="none" d="M700 557.35h352.15V741.8H700V557.35Zm-334.75-68.2h236.9v148.7h-236.9v-148.7Z"/><path id="o" stroke="#211239" stroke-width="5" stroke-linejoin="round" stroke-linecap="round" fill="none" d="M902.75 460.95v.8H853.8l-49.7-46.25 6.65 47.05H945.8l6.65-47.85-49.7 46.25v-48.1H853.8v48.9m-15.9 76.5v-.2h26.7v.2h26.75v-.2h26.7v.2h26.8v-.2h26.7v.2h26.8v-.2h26.7v.2h.15l26.75-40.15h-347.6L731 538.05h26.6v.2h26.8v-.2h26.7v.2h26.8V552h26.7v-13.75m-53.5 0v173.6h-26.7v-173.6M891.35 552h26.7v-13.75m26.8 13.75h26.7v-13.75M944.85 552v-13.75M891.35 552v-13.75M730.9 552v-13.95h.1m-.1 13.95h26.7v-13.75m-26.5-40.15v-35.55h79.65M757.6 552v159.85h-26.7V552m133.7 0v159.85h-26.7V552m133.65 0v159.85h-26.7V552m-26.8 0v159.85h-26.7V552m-106.95 0h26.7m187.25-13.75V552h26.7v-13.75m-79.25-75.7h79.4v35.55m-.15 53.9v159.85h-26.7V552"/><path id="q" stroke="#211239" stroke-width="5" stroke-linejoin="round" stroke-linecap="round" fill="none" d="M1307.2 700v56.15H154.8V700h362.85V593.05H731V700m49 0v2h527.2M780 702v54.15M943 702v54.15M517.65 702H780"/><path id="s" stroke="#211239" stroke-width="5" stroke-linejoin="round" stroke-linecap="round" fill="none" d="M364.7 184.2q0 5.1-3.75 8.55-3.45 3.75-8.55 3.75-5.1 0-8.8-3.75-3.5-3.45-3.5-8.55 0-5.05 3.5-8.8 3.7-3.5 8.8-3.5 5.1 0 8.55 3.5 3.75 3.75 3.75 8.8Zm60.95 24.6q0 6.7-4.8 11.5-4.8 4.85-11.5 4.85t-11.5-4.85q-4.8-4.8-4.8-11.5 0-6.65 4.8-11.5 4.8-4.8 11.5-4.8t11.5 4.8q4.8 4.85 4.8 11.5Zm15.8 48.7 70.05-31.3-59.65-16.85-5.85 9.1-4.55 39.05-3.5 27.8 16.3 31h-28.3v20.6h23.5l-17.9 32.9V696h-40.9V369.8l-18.2-32.9h23.25v-20.6h-27.25l25.65-53.45-82.6-36.65 59.6-16.85 28.1 42.8L409.35 231l12.05 22.45m2.4-1.3 22.2-33.7 5.6-46.55m-13.65 113.4-11.2-21.4-5.35-10.45m7.45 9.4 12.6-5.35m-47.35 5.35 5.1-10.7m-3.5 73.15h30.25m-35.3 58.5h40.9m-35.85-67.5h30.25m0 20.6H395.7m-5.05 32.9h40.9"/><path id="u" stroke="#211239" stroke-width="5" stroke-linejoin="round" stroke-linecap="round" fill="none" d="M150 433.45q4.126-5.276 9.15-10.3 31.05-31 75.1-31.25h1.35q23.45.25 43.3 9.35 16.9 7.75 31.05 21.9 4.982 4.982 9.1 10.25v-13.5h8v25.45h14.15M206.325 460l28.725-14.65H142V460h64.325L142 492.8l-43.3 22.05h271.65l-43.3-22.25-63.475-32.6-28.525-14.65h92q-3.48-6.148-8-11.95M219 514.85V532h31.05v-17.15m-82.1 0V651.2h44.65l6.4-.25V532m82.1-17.15V532h31.55v-17.15m-204.8-69.5H142V419.9h8v13.55q-4.543 5.798-8 11.9m0 14.65v32.8M244.95 702h-331V514.85h26.45V444.2h11.85v18.75h22.15V444.2h11.85v18.75h22.8V444.2H20.9v70.65h77.8m-77.8 34.2V571m53.45-19.25V571m62.05-56.15V532h31.55m-60.7 170v-50.8h29.15V532m-62.05 86.55v19.3M20.9 615.9v21.95m224.05 13.35h1.35q.8-.25 1.6-.25h2.15V532m-5.1 118.95V702h49.95v-42.25m-3.5-8.55h-45.1m10.15 0-6.4-.25m44.85 8.8v-8.55h-3.5m9.7 0h-6.2m-53.15 0h-3.5l6.7-.25-3.2.25h3.2m-17.65 0h-14.7m14.7 0h3.5l-6.7-.25 3.2.25Zm8.3 0h-1.35m-15.25-.25h2.15q.8 0 1.6.25M294.9 702v.5m-49.95-.5v.5M301.1 532v119.2h31.55V532M136.4 651.2h31.55m360.7-136.35V444.2H516.8v18.75H494V444.2h-11.85v18.75H460V444.2h-11.85v70.65H555.1V702H294.9m194.6-152h25v25h-25v-25Zm-162.45-57.4v-47.25M263.575 460h63.475m55.45 90h25v25h-25v-25Zm53.25 0h25v25h-25v-25Zm12.4-35.15h-77.8M435.75 615h25v25h-25v-25Zm-53.25 0h25v25h-25v-25Zm-20.7 87v-50.8h-29.15M489.5 615h25v25h-25v-25Zm-522.1-65.95V571m0 44.9v21.95m53.5-123h-80.5"/><path id="w" stroke="#211239" stroke-width="5" stroke-linejoin="round" stroke-linecap="round" fill="none" d="M155.95 630h93v81h-93v-81ZM590 650v10h40m-40-10h20m-120.5 0H470l19.5-35H590v35H489.5v10H590v50H489.5v-50"/><path id="A" stroke="#211239" stroke-width="5" stroke-linejoin="round" stroke-linecap="round" fill="none" d="m-281.3 642.8 264.7-340.65 48.15-62.05q-7.5 198.15 81.3 343.6 19.25 31.55 43.85 61.2l16 18.2q151.35 162.05 410.7 181 244.65 17.65 512.3-99.2 25.4-11.2 50.8-23.5l59.55 170.85 15.725 45.1 48.025 137.8 18.45-.8M31.3 492.5q-8.05-6.15-18.2-8.3-5.6-1.6-14.45 0-7.2 1.1-15.25 5.1-2.65 1.35-5.6 3.2-29.15 12.3-53.5 0m232.4 152.4q-21.15 5.1-40.15-4.55m-165.2-45.7q14.95-11.25 32.05-8.55 10.45 1.6 21.4 8.55 29.15 12.3 53.5 0m53.45 106.95q-8-6.15-18.15-8.3-5.65-1.6-14.45 0-9.65 1.35-20.85 8.3-29.15 12.3-53.5 0m481.3 265.8q24.05-18.2 53.45 0 29.15 12.3 53.5 0M440.65 854q-8.05-6.15-18.2-8.3-5.6-1.6-14.45 0-9.6 1.35-20.85 8.3-29.15 12.3-53.45 0m-61.5 113.4q24.05-18.2 53.45 0 29.15 12.3 53.5 0m48.1 68.45q-8-6.15-18.15-8.3-5.65-1.6-14.45 0-9.65 1.35-20.85 8.3-29.15 12.3-53.5 0m318.2 0q-8-6.15-18.2-8.3-5.6-1.6-14.4 0-9.65 1.35-20.9 8.3-29.1 12.3-53.45 0M146.5 851.35q-8-6.15-18.15-8.3-5.65-1.6-14.45 0-9.65 1.35-20.85 8.3-29.15 12.3-53.5 0M58.3 1127.8l-1.35-2.15-52.15 2.15m52.15-2.15L36.1 1095.7l-52.7-74.85-58.475-83.5-31.575-45.1L-281.3 642.8l-88.25 113.35m1639.35 319 18.45 52.65m-1231.3-2.15 718.7-29.95 320.05-13.35 174.1-7.2m-409.35-200.3q-8.05-6.15-18.2-8.25-5.6-1.65-14.45 0-9.6 1.3-20.85 8.25-29.15 12.3-53.5 0M700 967.4q24.05-18.2 53.45 0 29.15 12.3 53.5 0m-1123-374.35 34.75 49.75"/><path id="C" stroke="#211239" stroke-width="5" stroke-linejoin="round" stroke-linecap="round" fill="none" d="M631.35 250.25q11.75-6.65 26.2-6.65 15 0 26.75 6.95V190.1h-53.5l.55 60.15q-6.15 3.5-11.75 8.85-15.5 15.75-15.5 37.95 0 22.2 15.5 37.7 15.75 15.8 37.95 15.8 22.2 0 37.7-15.8 15.8-15.5 15.8-37.7 0-22.2-15.8-37.95-5.1-5.1-10.95-8.55M660.1 781h24.2l-12.55-361-.025-1H642.6l-.025 1-5.025 154.375 21.05 51.375v30.35m1.5 124.9h-29.3l5.825-178.525.925-28.1M671.725 419l-.525-15h-28.1l-.5 15m28.6-15h13.1l-26.75-53.45L630.8 404h12.3m15.5 252.1v46.4"/><path id="D" stroke="#FFF" stroke-width="9" stroke-linejoin="round" stroke-linecap="butt" fill="none" d="M657.55 68V48m0 100v-20m0-20V88m0 100.1V168"/><path id="E" stroke="#FF4F5E" stroke-width="9" stroke-linejoin="round" stroke-linecap="butt" fill="none" d="M657.55 48V28m0 60V68m0 60v-20m0 60v-20"/><path id="G" stroke="#211239" stroke-width="5" stroke-linejoin="round" stroke-linecap="round" fill="none" d="M650 699.7v40.6q.156 9.7 10 9.7h120q9.85 0 10-9.7v-40.6q-.15-9.7-10-9.7H660q-9.844 0-10 9.7-.156-9.7-10-9.7H520q-9.844 0-10 9.7v40.6q.156 9.7 10 9.7h120q9.844 0 10-9.7m140-40.6q.15-9.7 10-9.7h120q10 0 10 10v40q0 10-10 10H800q-9.85 0-10-9.7m-280 0q-.156 9.7-10 9.7H380q-9.844 0-10-9.7-.156 9.7-10 9.7H240q-9.85 0-10-9.7-.15 9.7-10 9.7H100q-10 0-10-10v-40q0-10 10-10h120q9.85 0 10 9.7.15-9.7 10-9.7h120q9.844 0 10 9.7.156-9.7 10-9.7h120q9.844 0 10 9.7m-280 0v40.6m140 0v-40.6"/><path id="I" stroke="#211239" stroke-width="5" stroke-linejoin="round" stroke-linecap="round" fill="none" d="M1400 750v20h25.6m-25.6-40v20h25.6M1260 770h140m-70 0v170h-70v-45.1q-.25-10.3-38.1-17.6-30.8-5.9-71.9-7-9.7-.3-20-.3-15.65 0-30 .65-34.95 1.45-61.95 6.65-16.75 3.25-26.1 7.05-11.8 4.8-11.95 10.55v30.275q1.983.034 3.95-.075 16-.8 31-10.7M590 590h-10v-20h15l30-80 30 80h15v20h-10v70h10l10 20v40l-10 20v10h730m-730 0v20h590v124.9M887 790q2.15 0 4.15.45 6.05 1.4 10.6 6.85 2.147 2.545 3.55 5.45 2.65 5.484 2.65 12.25v25h-41.9v-25q0-10.35 6.1-17.7Q878.3 790 887 790Zm330 0q2.15 0 4.15.45 6.05 1.4 10.6 6.85 6.2 7.35 6.2 17.7v25h-41.9v-25q0-10.35 6.1-17.7 6.15-7.3 14.85-7.3ZM240 590h-10v-20h15l30-80 30 80h15v20h-10v70h10l10 20v40l-10 20v10h260v-10l-10-20v-40l10-20h10v-70h70m-415-20h60m-65 20h70m-50 56.5h30v-20.3q-.111-6.011-4.4-10.3-4.4-4.4-10.6-4.4-6.2 0-10.6 4.4-4.289 4.289-4.4 10.3v20.3ZM230 740l-10-20v-40l10-20h10v-70m-53 200q2.15 0 4.15.45 6.05 1.4 10.6 6.85 6.2 7.35 6.2 17.7v25h-41.9v-25q0-10.35 6.1-17.7Q178.3 790 187 790Zm43-20v-20H-30v20h260v134.65q20.614-2.258 39.35 9.75 20.6 11.75 39.6 10.7 5.586-.28 11.05-1.675V750h-90v-10h90m-80-140h70m0 60h-70m370-13.5h30v-20.3q-.111-6.011-4.4-10.3-4.4-4.4-10.6-4.4-6.2 0-10.6 4.4-4.289 4.289-4.4 10.3v20.3ZM320 770h260v-20h90m-450-30h110m-110-40h110m250 170h-.525q.463 3.176.525 6.45V770m0 86.45v48.925q1.052-.177 2.1-.325 22.2-3.5 42.25 9.35 20.6 11.75 39.6 10.7 3.043-.152 6.05-.625V770M555.35 914.4q12.558-6.9 24.65-9.025M320.525 850q3.912-26.941 36.575-46.775.472-.29.95-.575Q396.15 780 450 780t91.9 22.65q33.6 20.02 37.575 47.35h-258.95q-.463 3.176-.525 6.45m0-6.45h.525M200.35 914.4q13.65-7.5 26.75-9.35 1.454-.23 2.9-.4M-30 860v34.9q.15-5.75 11.95-10.55 9.35-3.8 26.1-7.05 27-5.2 61.95-6.65 14.35-.65 30-.65 10.3 0 20 .3 41.1 1.1 71.9 7 37.85 7.3 38.1 17.6M128.3 790q8.7 0 14.8 7.3 6.15 7.35 6.15 17.7v25h-41.9v-25q0-10.35 6.15-17.7 6.15-7.3 14.8-7.3Zm-58.65 0q8.65 0 14.8 7.3 6.15 7.35 6.15 17.7v25H48.7v-25q0-10.35 6.1-17.7Q61 790 69.65 790ZM11 790q8.65 0 14.8 7.3 6.15 7.35 6.15 17.7v25h-41.9v-25q0-10.35 6.1-17.7Q2.3 790 11 790Zm309 133.425q10.187-2.581 19.95-9.025M320 860h260m578.3-70q8.7 0 14.8 7.3 6.15 7.35 6.15 17.7v25h-41.9v-25q0-10.35 6.15-17.7 6.15-7.3 14.8-7.3Zm-58.65 0q8.65 0 14.8 7.3 6.15 7.35 6.15 17.7v25h-41.9v-25q0-10.35 6.1-17.7 6.2-7.3 14.85-7.3Zm-58.65 0q8.65 0 14.8 7.3 6.15 7.35 6.15 17.7v25h-41.9v-25q0-10.35 6.1-17.7 6.15-7.3 14.85-7.3Zm219 70h-260v34.9m-330-.025q.14-5.728 11.95-10.525 9.374-3.82 26.1-7.05 27.016-5.176 61.95-6.675 14.334-.625 30-.625 10.288 0 20 .275 41.12 1.12 71.9 7.025 7.423 1.432 13.4 2.975 7.7 1.995 13 4.175 4.285 1.765 7 3.65 4.613 3.21 4.7 6.775V860H670m158.3-70q8.7 0 14.8 7.3 6.15 7.35 6.15 17.7v25h-41.9v-25q0-10.35 6.15-17.7 6.15-7.3 14.8-7.3ZM930 904.325v-9.45M895.35 914.4q13.65-7.5 26.75-9.35 3.985-.628 7.9-.725 17.899-.469 34.35 10.075 18.468 10.534 35.65 10.775M769.65 790q8.65 0 14.8 7.3 6.15 7.35 6.15 17.7v25h-41.9v-25q0-10.35 6.1-17.7 6.2-7.3 14.85-7.3ZM711 790q8.65 0 14.8 7.3 6.15 7.35 6.15 17.7v25h-41.9v-25q0-10.35 6.1-17.7Q702.3 790 711 790Zm-41 134.475q12.803-2.058 24.95-10.075M590 600h70m-80 140h90m-100-20h110m-85-150h60m5 90h-70m-20 20h110m250 180v-90m70 0v90m-1124.7-90H-30v90h260M-30 750h-20m-74.7 52.75q2.65 5.5 2.65 12.25v25h-2.65m0 40.3q7.7 1.95 13 4.15 4.3 1.75 7 3.65 4.6 3.2 4.7 6.8V860h-24.7m94.7 34.9V940h-70v-45.1m0-34.9v-90"/><g id="c"><path fill="#211239" d="M220.85 858.55q131.8 132.1 318.7 132.1 186.9 0 319-132.1 62.597-62.597 95.5-137.5H125.1q33.034 74.903 95.75 137.5Z"/><path fill="#0FF" d="M954.05 721.05q36.6-83.165 36.6-181.5 0-186.9-132.1-318.7-132.1-132.35-319-132.35t-318.7 132.35Q88.5 352.65 88.5 539.55q0 98.335 36.6 181.5h828.95Z"/></g><g id="l"><path fill="#211239" d="M602.15 489.15h-236.9v148.7h236.9v-148.7Z"/><path fill="#6E008B" d="M700 557.35V741.8h352.15V557.35H700Z"/></g><g id="n"><path fill="#E7E5E2" d="M1025.05 552h-26.7v159.85h26.7V552m-213.95 0h-26.7v159.85h26.7V552m-53.5 0h-26.7v159.85h26.7V552m213.95 0h-26.7v159.85h26.7V552m-53.5 0h-26.7v159.85h26.7V552m-53.45 0h-26.7v159.85h26.7V552Z"/><path fill="#211239" d="M1025.05 538.25v-.2h-26.7V552h26.7v-13.75m-294.05-.2h-.1V552h26.7v-13.95H731m187.05.2v-.2h-26.7V552h26.7v-13.75m53.5 0v-.2h-26.7V552h26.7v-13.75m-160.45 0v-.2h-26.7V552h26.7v-13.75m53.5 0v-.2h-26.7V552h26.7v-13.75Z"/><path fill="#959595" d="M945.8 462.55H731.1v35.55h294.1v-35.55h-79.4m-81.2 75.5v.2h26.75v-.2h26.7v.2h26.8v-.2h26.7v.2h26.8v-.2h26.7v.2h.15l26.75-40.15h-347.6L731 538.05h26.6v.2h26.8v-.2h26.7v.2h26.8v-.2h26.7Z"/><path fill="#54FFBD" d="M902.75 461.75v-48.9H853.8v48.9h48.95m0-.8v.8H853.8l-49.7-46.25 6.65 47.05H945.8l6.65-47.85-49.7 46.25Z"/></g><g id="p"><path fill="#211239" d="M780 702v54.15h163V702H780Z"/><path fill="#959595" d="M780 702v-2h-49V593.05H517.65V700H154.8v56.15H780V702H517.65 780Z"/><path fill="#6E008B" d="M1307.2 756.15V702H943v54.15h364.2Z"/><path fill="#FFF44F" d="M1307.2 702v-2H780v2h527.2Z"/></g><g id="r"><path fill="#959595" d="M431.55 383.8h-40.9V696h40.9V383.8m-35.85-46.9h-23.25l18.2 32.9h40.9l17.9-32.9H395.7m0-11.6v11.6h30.25v-11.6H395.7Z"/><path fill="#211239" d="M390.65 369.8v14h40.9v-14h-40.9m5.05-53.5v9h30.25v-9H395.7Z"/><path fill="#FFF44F" d="m394.1 262.85 5.1-10.7-28.1-42.8-59.6 16.85 82.6 36.65m27.3-9.4 5.35 10.45 2.1-1.05 12.6-5.35 4.55-39.05-22.2 33.7-2.4 1.3m16.55 31.85-11.2-21.4-5.35-10.45L409.35 231l-10.15 21.15-5.1 10.7-25.65 53.45h85.8l-16.3-31m13.9-75.95-5.85 9.1-4.55 39.05 70.05-31.3-59.65-16.85m-31-12.05q-4.8-4.8-11.5-4.8t-11.5 4.8q-4.8 4.85-4.8 11.5 0 6.7 4.8 11.5 4.8 4.85 11.5 4.85t11.5-4.85q4.8-4.8 4.8-11.5 0-6.65-4.8-11.5m-59.9-21.9q-3.45-3.5-8.55-3.5-5.1 0-8.8 3.5-3.5 3.75-3.5 8.8 0 5.1 3.5 8.55 3.7 3.75 8.8 3.75 5.1 0 8.55-3.75 3.75-3.45 3.75-8.55 0-5.05-3.75-8.8Z"/></g><g id="t"><path fill="#959595" d="M327.05 492.6V460h-63.5l63.5 32.6M142 460v32.8l64.3-32.8H142m372.5 155h-25v25h25v-25m-107 25v-25h-25v25h25m53.25 0v-25h-25v25h25m53.75-90h-25v25h25v-25m-78.75 0v25h25v-25h-25m-53.25 0v25h25v-25h-25m-81.4-18v-17.15h-51.05v136.1l6.4.25h44.65V532m-82.1 0v-17.15h-51.05V651.2h44.65l6.4-.25V532Z"/><path fill="#211239" d="m235.05 445.35 28.5 14.65h63.5v-14.65h-92M206.3 460l28.75-14.65H142V460h64.3M142 445.35q3.457-6.102 8-11.9V419.9h-8v25.45m177.05-25.45v13.5q4.52 5.802 8 11.95V419.9h-8m-17.95 94.95V532h31.55v-17.15H301.1M246.3 651.2h-1.35V702h49.95v-42.25l-3.5-8.55h-45.1M167.95 532v-17.15H136.4V532h31.55M219 514.85V532h31.05v-17.15H219Z"/><path fill="#E7E5E2" d="M235.05 445.35 206.3 460 142 492.8l-43.3 22.05h271.65l-43.3-22.25-63.5-32.6-28.5-14.65m.55-53.45h-1.35q-44.05.25-75.1 31.25-5.024 5.024-9.15 10.3-4.543 5.798-8 11.9h185.05q-3.48-6.148-8-11.95-4.118-5.268-9.1-10.25-14.15-14.15-31.05-21.9-19.85-9.1-43.3-9.35m319.5 122.95H332.65V651.2h29.15V702h193.3V514.85M382.5 575v-25h25v25h-25m53.25 0v-25h25v25h-25m53.75-25h25v25h-25v-25m-28.75 65v25h-25v-25h25m-53.25 0v25h-25v-25h25m82 0h25v25h-25v-25m27.3-152.05H494V444.2h-11.85v18.75H460V444.2h-11.85v70.65h80.5V444.2H516.8v18.75M301.1 532v119.2h31.55V532H301.1m-6.2 119.2V702h66.9v-50.8h-66.9M167.95 532H136.4v119.2h31.55V532M294.9 659.75v-8.55h-3.5l3.5 8.55m-49.95-8.55v-.25l-3.2.25h3.2M136.4 532v-17.15H-86.05V702h193.3v-50.8h29.15V532M20.9 549.05V571v-21.95m53.45 2.7V571v-19.25m0 66.8v19.3-19.3M20.9 615.9v21.95-21.95m-53.5-66.85V571v-21.95m0 66.85v21.95-21.95m53.5-171.7H9.05v18.75h-22.8V444.2H-25.6v18.75h-22.15V444.2H-59.6v70.65h80.5V444.2M250.05 532H219v118.95h2.15q.8 0 1.6.25h4.55l-3.2-.25 6.7.25H107.25V702h137.7v-50.8h-6.7l6.7-.25v.25h1.35q.8-.25 1.6-.25h2.15V532M235.6 651.2h-1.35 1.35Z"/></g><g id="v"><path fill="#6E008B" d="M155.95 630v81h93v-81h-93M590 660H489.5v50H590v-50Z"/><path fill="#FF4F5D" d="M590 650v-35H489.5L470 650h120Z"/><path fill="#211239" d="M590 660v-10H489.5v10H590Z"/></g><g id="z"><path fill="#00366D" d="m1221.75 937.35-15.7-45.1h-1312.7l31.55 45.1h1296.85Z"/><path fill="#00458B" d="m36.1 1095.7 20.85 29.95 718.7-29.95 320.05-13.35 174.1-7.2-48.05-137.8H-75.1l58.5 83.5 52.7 74.85m450-128.3q24.05-18.2 53.45 0 29.15 12.3 53.5 0-24.35 12.3-53.5 0-29.4-18.2-53.45 0m-160.45 0q29.15 12.3 53.5 0-24.35 12.3-53.5 0-29.4-18.2-53.45 0 24.05-18.2 53.45 0m101.6 68.45q-8-6.15-18.15-8.3-5.65-1.6-14.45 0-9.65 1.35-20.85 8.3-29.15 12.3-53.5 0 24.35 12.3 53.5 0 11.2-6.95 20.85-8.3 8.8-1.6 14.45 0 10.15 2.15 18.15 8.3m211.25 0q-8-6.15-18.2-8.3-5.6-1.6-14.4 0-9.65 1.35-20.9 8.3-29.1 12.3-53.45 0 24.35 12.3 53.45 0 11.25-6.95 20.9-8.3 8.8-1.6 14.4 0 10.2 2.15 18.2 8.3m114.95-68.45q29.15 12.3 53.5 0-24.35 12.3-53.5 0-29.4-18.2-53.45 0 24.05-18.2 53.45 0m393.05-246q-25.4 12.3-50.8 23.5-267.65 116.85-512.3 99.2-259.35-18.95-410.7-181l-16-18.2q-21.15 5.1-40.15-4.55 19 9.65 40.15 4.55-24.6-29.65-43.85-61.2-88.8-145.45-81.3-343.6l-48.15 62.05-264.7 340.65 174.65 249.45h1312.7L1146.5 721.4M31.3 492.5q-8.05-6.15-18.2-8.3-5.6-1.6-14.45 0-7.2 1.1-15.25 5.1-2.65 1.35-5.6 3.2-29.15 12.3-53.5 0 24.35 12.3 53.5 0 2.95-1.85 5.6-3.2 8.05-4 15.25-5.1 8.85-1.6 14.45 0 10.15 2.15 18.2 8.3M4.8 594.65q29.15 12.3 53.5 0-24.35 12.3-53.5 0-10.95-6.95-21.4-8.55-17.1-2.7-32.05 8.55 14.95-11.25 32.05-8.55 10.45 1.6 21.4 8.55m74.35 98.65q-9.65 1.35-20.85 8.3-29.15 12.3-53.5 0 24.35 12.3 53.5 0 11.2-6.95 20.85-8.3 8.8-1.6 14.45 0 10.15 2.15 18.15 8.3-8-6.15-18.15-8.3-5.65-1.6-14.45 0m343.3 152.4q-5.6-1.6-14.45 0-9.6 1.35-20.85 8.3-29.15 12.3-53.45 0 24.3 12.3 53.45 0 11.25-6.95 20.85-8.3 8.85-1.6 14.45 0 10.15 2.15 18.2 8.3-8.05-6.15-18.2-8.3m-308.55-2.65q-9.65 1.35-20.85 8.3-29.15 12.3-53.5 0 24.35 12.3 53.5 0 11.2-6.95 20.85-8.3 8.8-1.6 14.45 0 10.15 2.15 18.15 8.3-8-6.15-18.15-8.3-5.65-1.6-14.45 0m728.35 23.55q-5.6-1.65-14.45 0-9.6 1.3-20.85 8.25-29.15 12.3-53.5 0 24.35 12.3 53.5 0 11.25-6.95 20.85-8.25 8.85-1.65 14.45 0 10.15 2.1 18.2 8.25-8.05-6.15-18.2-8.25Z"/></g><g id="B"><path fill="#211239" d="m660.1 659.75-1.5-3.65v46.4-76.75l-21.05-51.4-.95 28.1L630.8 781h29.3V659.75M671.7 419l-.5-15h-28.1l-.5 15h29.1Z"/><path fill="#E7E5E2" d="M671.2 404h13.1l-26.75-53.45L630.8 404h40.4m.55 16-.05-1h-29.1l-.05 1-5 154.35 21.05 51.4v30.35l1.5 3.65V781h24.2l-12.55-361m12.55-169.45q-11.75-6.95-26.75-6.95-14.45 0-26.2 6.65-6.15 3.5-11.75 8.85-15.5 15.75-15.5 37.95 0 22.2 15.5 37.7 15.75 15.8 37.95 15.8 22.2 0 37.7-15.8 15.8-15.5 15.8-37.7 0-22.2-15.8-37.95-5.1-5.1-10.95-8.55M657.35 260q5.95 5.95 5.95 14.4 0 7.315-4.45 12.75-.701.851-1.5 1.65-5.95 5.95-14.4 5.95t-14.4-5.95q-5.95-5.95-5.95-14.4 0-4.186 1.45-7.75 1.497-3.647 4.5-6.65 5.95-5.95 14.4-5.95t14.4 5.95m.2-16.4q15 0 26.75 6.95V190.1h-53.5l.55 60.15q11.75-6.65 26.2-6.65Z"/><path fill="#FFF" d="M663.3 274.4q0-8.45-5.95-14.4-5.95-5.95-14.4-5.95t-14.4 5.95q-3.003 3.003-4.5 6.65-1.45 3.564-1.45 7.75 0 8.45 5.95 14.4 5.95 5.95 14.4 5.95t14.4-5.95q.799-.799 1.5-1.65 4.45-5.435 4.45-12.75Z"/></g><g id="F"><path fill="#FFF44F" d="M370 699.7v40.6q.156 9.7 10 9.7h120q9.844 0 10-9.7v-40.6q-.156-9.7-10-9.7H380q-9.844 0-10 9.7m22.9 3.2q2.95-2.9 7.1-2.9 4.15 0 7.05 2.9 2.95 2.95 2.95 7.1v10q0 4.15-2.95 7.05-2.9 2.95-7.05 2.95t-7.1-2.95q-2.9-2.9-2.9-7.05v-10q0-4.15 2.9-7.1M450 720q0 4.15-2.95 7.05-2.9 2.95-7.05 2.95t-7.1-2.95q-2.9-2.9-2.9-7.05v-10q0-4.15 2.9-7.1 2.95-2.9 7.1-2.9 4.15 0 7.05 2.9 2.95 2.95 2.95 7.1v10m22.9-17.1q2.95-2.9 7.1-2.9 4.15 0 7.05 2.9 2.95 2.95 2.95 7.1v10q0 4.15-2.95 7.05-2.9 2.95-7.05 2.95t-7.1-2.95q-2.9-2.9-2.9-7.05v-10q0-4.15 2.9-7.1M230 699.7v40.6q.15 9.7 10 9.7h120q9.844 0 10-9.7v-40.6q-.156-9.7-10-9.7H240q-9.85 0-10 9.7m77.05 3.2q2.95 2.95 2.95 7.1v10q0 4.15-2.95 7.05-2.9 2.95-7.05 2.95t-7.1-2.95q-2.9-2.9-2.9-7.05v-10q0-4.15 2.9-7.1 2.95-2.9 7.1-2.9 4.15 0 7.05 2.9m-40 0q2.95 2.95 2.95 7.1v10q0 4.15-2.95 7.05-2.9 2.95-7.05 2.95t-7.1-2.95q-2.9-2.9-2.9-7.05v-10q0-4.15 2.9-7.1 2.95-2.9 7.1-2.9 4.15 0 7.05 2.9m80 0q2.95 2.95 2.95 7.1v10q0 4.15-2.95 7.05-2.9 2.95-7.05 2.95t-7.1-2.95q-2.9-2.9-2.9-7.05v-10q0-4.15 2.9-7.1 2.95-2.9 7.1-2.9 4.15 0 7.05 2.9M90 700v40q0 10 10 10h120q9.85 0 10-9.7v-40.6q-.15-9.7-10-9.7H100q-10 0-10 10m62.9 2.9q2.95-2.9 7.1-2.9 4.15 0 7.05 2.9 2.95 2.95 2.95 7.1v10q0 4.15-2.95 7.05-2.9 2.95-7.05 2.95t-7.1-2.95q-2.9-2.9-2.9-7.05v-10q0-4.15 2.9-7.1M130 720q0 4.15-2.95 7.05-2.9 2.95-7.05 2.95t-7.1-2.95q-2.9-2.9-2.9-7.05v-10q0-4.15 2.9-7.1 2.95-2.9 7.1-2.9 4.15 0 7.05 2.9 2.95 2.95 2.95 7.1v10m80 0q0 4.15-2.95 7.05-2.9 2.95-7.05 2.95t-7.1-2.95q-2.9-2.9-2.9-7.05v-10q0-4.15 2.9-7.1 2.95-2.9 7.1-2.9 4.15 0 7.05 2.9 2.95 2.95 2.95 7.1v10m580-20.3v40.6q.15 9.7 10 9.7h120q10 0 10-10v-40q0-10-10-10H800q-9.85 0-10 9.7m62.9 3.2q2.95-2.9 7.1-2.9 4.15 0 7.05 2.9 2.95 2.95 2.95 7.1v10q0 4.15-2.95 7.05-2.9 2.95-7.05 2.95t-7.1-2.95q-2.9-2.9-2.9-7.05v-10q0-4.15 2.9-7.1M890 720v-10q0-4.15 2.9-7.1 2.95-2.9 7.1-2.9 4.15 0 7.05 2.9 2.95 2.95 2.95 7.1v10q0 4.15-2.95 7.05-2.9 2.95-7.05 2.95t-7.1-2.95q-2.9-2.9-2.9-7.05m-77.1-17.1q2.95-2.9 7.1-2.9 4.15 0 7.05 2.9 2.95 2.95 2.95 7.1v10q0 4.15-2.95 7.05-2.9 2.95-7.05 2.95t-7.1-2.95q-2.9-2.9-2.9-7.05v-10q0-4.15 2.9-7.1M650 740.3v-40.6q-.156-9.7-10-9.7H520q-9.844 0-10 9.7v40.6q.156 9.7 10 9.7h120q9.844 0 10-9.7m-102.95-37.4q2.95 2.95 2.95 7.1v10q0 4.15-2.95 7.05-2.9 2.95-7.05 2.95t-7.1-2.95q-2.9-2.9-2.9-7.05v-10q0-4.15 2.9-7.1 2.95-2.9 7.1-2.9 4.15 0 7.05 2.9m65.85 0q2.95-2.9 7.1-2.9 4.15 0 7.05 2.9 2.95 2.95 2.95 7.1v10q0 4.15-2.95 7.05-2.9 2.95-7.05 2.95t-7.1-2.95q-2.9-2.9-2.9-7.05v-10q0-4.15 2.9-7.1m-40 0q2.95-2.9 7.1-2.9 4.15 0 7.05 2.9 2.95 2.95 2.95 7.1v10q0 4.15-2.95 7.05-2.9 2.95-7.05 2.95t-7.1-2.95q-2.9-2.9-2.9-7.05v-10q0-4.15 2.9-7.1m77.1-3.2v40.6q.156 9.7 10 9.7h120q9.85 0 10-9.7v-40.6q-.15-9.7-10-9.7H660q-9.844 0-10 9.7m40 10.3v10q0 4.15-2.95 7.05-2.9 2.95-7.05 2.95t-7.1-2.95q-2.9-2.9-2.9-7.05v-10q0-4.15 2.9-7.1 2.95-2.9 7.1-2.9 4.15 0 7.05 2.9 2.95 2.95 2.95 7.1m22.9-7.1q2.95-2.9 7.1-2.9 4.15 0 7.05 2.9 2.95 2.95 2.95 7.1v10q0 4.15-2.95 7.05-2.9 2.95-7.05 2.95t-7.1-2.95q-2.9-2.9-2.9-7.05v-10q0-4.15 2.9-7.1M770 710v10q0 4.15-2.95 7.05-2.9 2.95-7.05 2.95t-7.1-2.95q-2.9-2.9-2.9-7.05v-10q0-4.15 2.9-7.1 2.95-2.9 7.1-2.9 4.15 0 7.05 2.9 2.95 2.95 2.95 7.1Z"/><path fill="#211239" d="M480 700q-4.15 0-7.1 2.9-2.9 2.95-2.9 7.1v10q0 4.15 2.9 7.05 2.95 2.95 7.1 2.95 4.15 0 7.05-2.95 2.95-2.9 2.95-7.05v-10q0-4.15-2.95-7.1-2.9-2.9-7.05-2.9m-32.95 27.05q2.95-2.9 2.95-7.05v-10q0-4.15-2.95-7.1-2.9-2.9-7.05-2.9t-7.1 2.9q-2.9 2.95-2.9 7.1v10q0 4.15 2.9 7.05 2.95 2.95 7.1 2.95 4.15 0 7.05-2.95M400 700q-4.15 0-7.1 2.9-2.9 2.95-2.9 7.1v10q0 4.15 2.9 7.05 2.95 2.95 7.1 2.95 4.15 0 7.05-2.95 2.95-2.9 2.95-7.05v-10q0-4.15-2.95-7.1-2.9-2.9-7.05-2.9m-50 10q0-4.15-2.95-7.1-2.9-2.9-7.05-2.9t-7.1 2.9q-2.9 2.95-2.9 7.1v10q0 4.15 2.9 7.05 2.95 2.95 7.1 2.95 4.15 0 7.05-2.95 2.95-2.9 2.95-7.05v-10m-80 0q0-4.15-2.95-7.1-2.9-2.9-7.05-2.9t-7.1 2.9q-2.9 2.95-2.9 7.1v10q0 4.15 2.9 7.05 2.95 2.95 7.1 2.95 4.15 0 7.05-2.95 2.95-2.9 2.95-7.05v-10m40 0q0-4.15-2.95-7.1-2.9-2.9-7.05-2.9t-7.1 2.9q-2.9 2.95-2.9 7.1v10q0 4.15 2.9 7.05 2.95 2.95 7.1 2.95 4.15 0 7.05-2.95 2.95-2.9 2.95-7.05v-10m-102.95 17.05q2.95-2.9 2.95-7.05v-10q0-4.15-2.95-7.1-2.9-2.9-7.05-2.9t-7.1 2.9q-2.9 2.95-2.9 7.1v10q0 4.15 2.9 7.05 2.95 2.95 7.1 2.95 4.15 0 7.05-2.95m-80 0q2.95-2.9 2.95-7.05v-10q0-4.15-2.95-7.1-2.9-2.9-7.05-2.9t-7.1 2.9q-2.9 2.95-2.9 7.1v10q0 4.15 2.9 7.05 2.95 2.95 7.1 2.95 4.15 0 7.05-2.95M160 700q-4.15 0-7.1 2.9-2.9 2.95-2.9 7.1v10q0 4.15 2.9 7.05 2.95 2.95 7.1 2.95 4.15 0 7.05-2.95 2.95-2.9 2.95-7.05v-10q0-4.15-2.95-7.1-2.9-2.9-7.05-2.9m660 0q-4.15 0-7.1 2.9-2.9 2.95-2.9 7.1v10q0 4.15 2.9 7.05 2.95 2.95 7.1 2.95 4.15 0 7.05-2.95 2.95-2.9 2.95-7.05v-10q0-4.15-2.95-7.1-2.9-2.9-7.05-2.9m70 10v10q0 4.15 2.9 7.05 2.95 2.95 7.1 2.95 4.15 0 7.05-2.95 2.95-2.9 2.95-7.05v-10q0-4.15-2.95-7.1-2.9-2.9-7.05-2.9t-7.1 2.9q-2.9 2.95-2.9 7.1m-30-10q-4.15 0-7.1 2.9-2.9 2.95-2.9 7.1v10q0 4.15 2.9 7.05 2.95 2.95 7.1 2.95 4.15 0 7.05-2.95 2.95-2.9 2.95-7.05v-10q0-4.15-2.95-7.1-2.9-2.9-7.05-2.9m-280 0q-4.15 0-7.1 2.9-2.9 2.95-2.9 7.1v10q0 4.15 2.9 7.05 2.95 2.95 7.1 2.95 4.15 0 7.05-2.95 2.95-2.9 2.95-7.05v-10q0-4.15-2.95-7.1-2.9-2.9-7.05-2.9m40 0q-4.15 0-7.1 2.9-2.9 2.95-2.9 7.1v10q0 4.15 2.9 7.05 2.95 2.95 7.1 2.95 4.15 0 7.05-2.95 2.95-2.9 2.95-7.05v-10q0-4.15-2.95-7.1-2.9-2.9-7.05-2.9m-70 10q0-4.15-2.95-7.1-2.9-2.9-7.05-2.9t-7.1 2.9q-2.9 2.95-2.9 7.1v10q0 4.15 2.9 7.05 2.95 2.95 7.1 2.95 4.15 0 7.05-2.95 2.95-2.9 2.95-7.05v-10m220 10v-10q0-4.15-2.95-7.1-2.9-2.9-7.05-2.9t-7.1 2.9q-2.9 2.95-2.9 7.1v10q0 4.15 2.9 7.05 2.95 2.95 7.1 2.95 4.15 0 7.05-2.95 2.95-2.9 2.95-7.05m-50-20q-4.15 0-7.1 2.9-2.9 2.95-2.9 7.1v10q0 4.15 2.9 7.05 2.95 2.95 7.1 2.95 4.15 0 7.05-2.95 2.95-2.9 2.95-7.05v-10q0-4.15-2.95-7.1-2.9-2.9-7.05-2.9m-30 20v-10q0-4.15-2.95-7.1-2.9-2.9-7.05-2.9t-7.1 2.9q-2.9 2.95-2.9 7.1v10q0 4.15 2.9 7.05 2.95 2.95 7.1 2.95 4.15 0 7.05-2.95 2.95-2.9 2.95-7.05Z"/></g><g id="H"><path fill="#201238" d="M660 600v-10h-70v10h70m-35 11.5q-6.2 0-10.6 4.4-4.289 4.289-4.4 10.3v20.3h30v-20.3q-.111-6.011-4.4-10.3-4.4-4.4-10.6-4.4m-335 14.7q-.111-6.011-4.4-10.3-4.4-4.4-10.6-4.4-6.2 0-10.6 4.4-4.289 4.289-4.4 10.3v20.3h30v-20.3m20-36.2h-70v10h70v-10m360 160v-10h-90v10h90m-440-10v10h90v-10h-90M31.95 840v-25q0-10.35-6.15-17.7Q19.65 790 11 790q-8.7 0-14.85 7.3-6.1 7.35-6.1 17.7v25h41.9m58.65 0v-25q0-10.35-6.15-17.7-6.15-7.3-14.8-7.3t-14.85 7.3q-6.1 7.35-6.1 17.7v25h41.9m58.65 0v-25q0-10.35-6.15-17.7-6.1-7.3-14.8-7.3-8.65 0-14.8 7.3-6.15 7.35-6.15 17.7v25h41.9m41.9-49.55q-2-.45-4.15-.45-8.7 0-14.85 7.3-6.1 7.35-6.1 17.7v25h41.9v-25q0-10.35-6.2-17.7-4.55-5.45-10.6-6.85m870.8 49.55v-25q0-10.35-6.15-17.7-6.15-7.3-14.8-7.3-8.7 0-14.85 7.3-6.1 7.35-6.1 17.7v25h41.9m58.65 0v-25q0-10.35-6.15-17.7-6.15-7.3-14.8-7.3t-14.85 7.3q-6.1 7.35-6.1 17.7v25h41.9m58.65 0v-25q0-10.35-6.15-17.7-6.1-7.3-14.8-7.3-8.65 0-14.8 7.3-6.15 7.35-6.15 17.7v25h41.9m41.9-49.55q-2-.45-4.15-.45-8.7 0-14.85 7.3-6.1 7.35-6.1 17.7v25h41.9v-25q0-10.35-6.2-17.7-4.55-5.45-10.6-6.85M731.95 840v-25q0-10.35-6.15-17.7-6.15-7.3-14.8-7.3-8.7 0-14.85 7.3-6.1 7.35-6.1 17.7v25h41.9m58.65 0v-25q0-10.35-6.15-17.7-6.15-7.3-14.8-7.3t-14.85 7.3q-6.1 7.35-6.1 17.7v25h41.9m58.65 0v-25q0-10.35-6.15-17.7-6.1-7.3-14.8-7.3-8.65 0-14.8 7.3-6.15 7.35-6.15 17.7v25h41.9m41.9-49.55q-2-.45-4.15-.45-8.7 0-14.85 7.3-6.1 7.35-6.1 17.7v25h41.9v-25q0-6.766-2.65-12.25-1.403-2.905-3.55-5.45-4.55-5.45-10.6-6.85m-1015.85 12.3V840h2.65v-25q0-6.75-2.65-12.25Z"/><path fill="#FF4F5E" d="M660 660v-60h-70v60h70m-45.6-44.1q4.4-4.4 10.6-4.4 6.2 0 10.6 4.4 4.289 4.289 4.4 10.3v20.3h-30v-20.3q.111-6.011 4.4-10.3M680 680l-10-20h-90l-10 20h110m-20-90h10v-20h-90v20h80m-350 70v-60h-70v60h70m-24.4-44.1q4.289 4.289 4.4 10.3v20.3h-30v-20.3q.111-6.011 4.4-10.3 4.4-4.4 10.6-4.4 6.2 0 10.6 4.4M320 660h-90l-10 20h110l-10-20m-90-90v20h90v-20h-90m90 180v20h260v-20H320m1080 20v-20H670v20h730m-1170 0v-20H-30v20h260m-10-90v40h110v-40H220m0 40 10 20h90l10-20H220m460 0v-40H570v40h110m-10 20 10-20H570l10 20h90M230 860v-90H-30v90h260m-43-70q2.15 0 4.15.45 6.05 1.4 10.6 6.85 6.2 7.35 6.2 17.7v25h-41.9v-25q0-10.35 6.1-17.7Q178.3 790 187 790m-37.75 25v25h-41.9v-25q0-10.35 6.15-17.7 6.15-7.3 14.8-7.3 8.7 0 14.8 7.3 6.15 7.35 6.15 17.7m-58.65 0v25H48.7v-25q0-10.35 6.1-17.7Q61 790 69.65 790q8.65 0 14.8 7.3 6.15 7.35 6.15 17.7m-58.65 0v25h-41.9v-25q0-10.35 6.1-17.7Q2.3 790 11 790q8.65 0 14.8 7.3 6.15 7.35 6.15 17.7m886.35 69.45q4.285 1.765 7 3.65 4.613 3.21 4.7 6.75V860H670v34.85q.14-5.703 11.95-10.5 9.374-3.82 26.1-7.05 27.016-5.176 61.95-6.7 14.334-.6 30-.6 10.288 0 20 .25 41.12 1.145 71.9 7.05 7.423 1.432 13.4 2.95 7.7 2.02 13 4.2m303.6-7.15q37.85 7.3 38.1 17.6V860h-260v34.9q.15-5.75 11.95-10.55 9.35-3.8 26.1-7.05 27-5.2 61.95-6.65 14.35-.65 30-.65 10.3 0 20 .3 41.1 1.1 71.9 7M230 894.9V860H-30v34.9q.15-5.75 11.95-10.55 9.35-3.8 26.1-7.05 27-5.2 61.95-6.65 14.35-.65 30-.65 10.3 0 20 .3 41.1 1.1 71.9 7 37.85 7.3 38.1 17.6M625 490l-30 80h60l-30-80m-380 80h60l-30-80-30 80m755 200h-70v134.3q17.899-.444 34.35 10.1 18.468 10.534 35.65 10.75V770m260 0h-260v90h260v-90m-43 20q2.15 0 4.15.45 6.05 1.4 10.6 6.85 6.2 7.35 6.2 17.7v25h-41.9v-25q0-10.35 6.1-17.7 6.15-7.3 14.85-7.3m-37.75 25v25h-41.9v-25q0-10.35 6.15-17.7 6.15-7.3 14.8-7.3 8.7 0 14.8 7.3 6.15 7.35 6.15 17.7m-58.65 0v25h-41.9v-25q0-10.35 6.1-17.7 6.2-7.3 14.85-7.3 8.65 0 14.8 7.3 6.15 7.35 6.15 17.7m-58.65 0v25h-41.9v-25q0-10.35 6.1-17.7 6.15-7.3 14.85-7.3 8.65 0 14.8 7.3 6.15 7.35 6.15 17.7M930 770H670v90h260v-90m-43 20q2.15 0 4.15.45 6.05 1.4 10.6 6.85 2.147 2.545 3.55 5.45 2.65 5.484 2.65 12.25v25h-41.9v-25q0-10.35 6.1-17.7Q878.3 790 887 790m-37.75 25v25h-41.9v-25q0-10.35 6.15-17.7 6.15-7.3 14.8-7.3 8.7 0 14.8 7.3 6.15 7.35 6.15 17.7m-58.65 0v25h-41.9v-25q0-10.35 6.1-17.7 6.2-7.3 14.85-7.3 8.65 0 14.8 7.3 6.15 7.35 6.15 17.7m-58.65 0v25h-41.9v-25q0-10.35 6.1-17.7Q702.3 790 711 790q8.65 0 14.8 7.3 6.15 7.35 6.15 17.7Z"/><path fill="#959595" d="M670 770v-20h-90v155.35q1.052-.152 2.1-.3 22.2-3.5 42.25 9.35 20.6 11.75 39.6 10.7 3.043-.152 6.05-.65V770m-440-20v154.65q20.614-2.258 39.35 9.75 20.6 11.75 39.6 10.7 5.586-.28 11.05-1.7V750h-90m90 106.45q.062-3.274.5-6.45h-.5v6.45m260 0q-.062-3.274-.55-6.45H320.5q-.438 3.176-.5 6.45V860h260v-3.55m-.55-6.45q.488 3.176.55 6.45V850h-.55m.55-80H320v80h.5q3.937-26.941 36.6-46.8.472-.265.95-.55Q396.15 780 450 780t91.9 22.65q33.6 20.02 37.55 47.35h.55v-80Z"/></g></defs><mask id="b"><use xlink:href="#a"/></mask><g mask="url(#b)"><use xlink:href="#c"/></g><g mask="url(#b)"><use xlink:href="#d"/><use xlink:href="#e"/><use xlink:href="#f"/><use xlink:href="#g"/></g><mask id="i"><use xlink:href="#h"/></mask><g mask="url(#i)"><use xlink:href="#j"/><use xlink:href="#k"/><use xlink:href="#l"/><use xlink:href="#m"/></g><g mask="url(#i)"><use xlink:href="#n"/><use xlink:href="#o"/></g><g mask="url(#i)"><use xlink:href="#p"/><use xlink:href="#q"/></g><g mask="url(#i)"><use xlink:href="#r"/><use xlink:href="#s"/></g><g mask="url(#i)"><use xlink:href="#t"/><use xlink:href="#u"/></g><g mask="url(#i)"><use xlink:href="#v"/><use xlink:href="#w"/></g><mask id="y"><use xlink:href="#x"/></mask><g mask="url(#y)"><use xlink:href="#z"/><use xlink:href="#A"/></g><g mask="url(#y)"><use xlink:href="#B"/><use xlink:href="#C"/><use xlink:href="#D"/><use xlink:href="#E"/></g><g mask="url(#y)"><use xlink:href="#F"/><use xlink:href="#G"/></g><g mask="url(#y)"><use xlink:href="#H"/><use xlink:href="#I"/></g></svg>